<svg version="1.1" id="Layer_1" xmlns="http://www.w3.org/2000/svg" xmlns:xlink="http://www.w3.org/1999/xlink" x="0px" y="0px"
	 width="100%" viewBox="0 0 756 264" enable-background="new 0 0 756 264" xml:space="preserve">
<path fill="#F4F7F8" opacity="1.000000" stroke="none" 
	d="
M599.000000,265.000000 
	C399.382141,265.000000 200.264267,265.000000 1.073204,265.000000 
	C1.073204,177.070419 1.073204,89.140755 1.073204,1.105549 
	C252.999969,1.105549 504.999969,1.105549 756.980591,1.105549 
	C756.980591,89.069023 756.980591,177.034515 756.980591,265.000000 
	C704.474121,265.000000 651.987061,265.000000 599.000000,265.000000 
M18.350426,243.465988 
	C18.635225,247.742020 21.417847,246.664917 24.880926,246.107346 
	C28.198162,246.130875 31.515398,246.154404 35.146034,246.907852 
	C37.190514,247.260849 39.234913,247.922424 41.279480,247.922958 
	C217.209564,247.968765 393.139679,247.963303 569.069763,247.962021 
	C613.552063,247.961685 658.034485,247.985138 702.516541,247.887695 
	C704.398499,247.883575 706.278015,246.764542 709.075378,246.152130 
	C717.478149,245.879135 725.880981,245.606140 735.027588,244.984787 
	C735.396057,243.276138 736.085632,241.567719 736.086792,239.858826 
	C736.136108,166.919327 736.124146,93.979797 736.130676,20.292896 
	C735.151001,19.454817 734.171326,18.616739 732.971619,17.184315 
	C731.913086,17.379583 730.854553,17.574850 728.900635,17.801319 
	C724.997559,17.795856 721.094482,17.790396 716.866943,17.077009 
	C713.085632,15.813066 709.311218,14.656006 705.055115,17.719212 
	C702.699829,17.531975 700.344482,17.344738 697.450500,16.522690 
	C693.573364,16.946182 689.696167,17.369673 685.019165,17.708202 
	C683.549805,17.490610 682.080505,17.083393 680.611084,17.083149 
	C643.738037,17.077019 606.864990,17.113731 569.531982,16.550306 
	C567.691101,16.746944 565.850159,16.943583 563.120056,17.087965 
	C560.743774,17.107006 558.367432,17.126047 555.508789,16.542686 
	C553.343079,16.745628 551.177307,16.948568 548.090332,17.094883 
	C544.390808,17.111359 540.691345,17.127834 536.449829,16.515989 
	C532.636536,16.725517 528.823181,16.935045 524.088562,17.090681 
	C520.389221,17.111225 516.689941,17.131769 512.438110,16.513525 
	C507.987274,16.359659 503.532806,16.023697 499.086731,16.111383 
	C495.723114,16.177725 492.370209,16.784912 488.153442,17.097528 
	C486.432434,17.115356 484.711395,17.133184 482.441376,16.514305 
	C477.602478,16.912615 472.763580,17.310925 467.085297,17.785652 
	C464.054169,17.571682 461.023041,17.357714 457.436096,16.508615 
	C449.961243,16.723143 442.486420,16.937668 434.108429,17.095352 
	C425.735840,17.112524 417.363281,17.129696 408.450043,16.517267 
	C404.637085,16.727062 400.824127,16.936857 396.074310,17.091335 
	C376.713013,17.110411 357.351746,17.129484 337.436920,16.511080 
	C325.504059,16.382971 313.571259,16.241348 301.638031,16.170628 
	C301.097565,16.167423 300.553253,16.804934 299.073853,17.089849 
	C271.713501,17.108549 244.353149,17.127247 216.601120,16.581224 
	C215.404007,16.770252 214.206909,16.959278 212.101379,17.092258 
	C209.064941,17.108196 206.028488,17.124134 202.439728,16.507383 
	C197.630157,16.721289 192.820587,16.935194 187.076202,17.093546 
	C181.713882,17.113867 176.351547,17.134188 170.438873,16.513372 
	C165.324097,16.359055 160.207321,16.045940 155.095306,16.110401 
	C152.063400,16.148634 149.038986,16.782343 145.134842,17.093271 
	C143.086853,17.111324 141.038879,17.129379 138.437439,16.509953 
	C131.977081,16.398218 125.514809,16.140741 119.057037,16.225660 
	C114.705101,16.282888 110.359535,16.823559 105.074310,17.091343 
	C94.714066,17.109175 84.353821,17.127008 73.653885,16.603296 
	C72.772270,16.784994 71.890648,16.966692 70.336754,17.109106 
	C69.888115,17.120344 69.439476,17.131582 68.463326,16.522167 
	C65.312759,16.732138 62.162201,16.942108 58.074802,17.095713 
	C46.966850,17.357533 35.855080,17.521502 24.753822,17.954905 
	C22.206675,18.054348 18.633762,17.586426 18.840342,22.989607 
	C18.820271,96.320496 18.800200,169.651398 18.350426,243.465988 
z"/>
<path fill="#97C3CC" opacity="1.000000" stroke="none" 
	d="
M68.990837,17.142820 
	C69.439476,17.131582 69.888115,17.120344 70.865692,17.350868 
	C72.260948,17.443367 73.127258,17.294104 73.993576,17.144840 
	C84.353821,17.127008 94.714066,17.109175 105.855957,17.384029 
	C114.040062,17.791260 121.443047,18.009901 128.844772,17.973675 
	C132.228073,17.957117 135.608932,17.438402 138.990891,17.147430 
	C141.038879,17.129379 143.086853,17.111324 145.886429,17.384926 
	C154.755081,17.502556 162.872162,17.328531 170.989227,17.154507 
	C176.351547,17.134188 181.713882,17.113867 187.855164,17.384174 
	C193.420090,17.496559 198.206070,17.318316 202.992050,17.140072 
	C206.028488,17.124134 209.064941,17.108196 212.777725,17.352587 
	C214.633652,17.457258 215.813217,17.301601 216.992798,17.145945 
	C244.353149,17.127247 271.713501,17.108549 299.855499,17.381668 
	C311.352203,17.789038 322.067108,17.945768 332.782410,17.978594 
	C334.517548,17.983910 336.254395,17.439089 337.990448,17.148560 
	C357.351746,17.129484 376.713013,17.110411 396.848755,17.379953 
	C401.412354,17.494671 405.201538,17.320770 408.990692,17.146868 
	C417.363281,17.129696 425.735840,17.112524 434.874115,17.386589 
	C443.090515,17.499800 450.541199,17.321772 457.991913,17.143744 
	C461.023041,17.357714 464.054169,17.571682 467.710388,18.056767 
	C473.220459,17.935589 478.105438,17.543297 482.990387,17.151009 
	C484.711395,17.133184 486.432434,17.115356 488.896851,17.387550 
	C497.423676,17.502485 505.207153,17.327398 512.990601,17.152313 
	C516.689941,17.131769 520.389221,17.111225 524.855103,17.379158 
	C529.411743,17.493195 533.201782,17.318752 536.991821,17.144310 
	C540.691345,17.127834 544.390808,17.111359 548.824890,17.370794 
	C551.703369,17.479500 553.847229,17.312294 555.991150,17.145088 
	C558.367432,17.126047 560.743774,17.107006 563.824768,17.359978 
	C566.350281,17.468954 568.171143,17.305920 569.991943,17.142887 
	C606.864990,17.113731 643.738037,17.077019 680.611084,17.083149 
	C682.080505,17.083393 683.549805,17.490610 685.889709,17.828079 
	C690.503235,17.684473 694.246216,17.420988 697.989197,17.157501 
	C700.344482,17.344738 702.699829,17.531975 705.909912,17.834888 
	C710.240295,17.895353 713.715881,17.840143 717.191406,17.784931 
	C721.094482,17.790396 724.997559,17.795856 729.770508,17.868599 
	C731.490784,17.883471 732.341248,17.831066 733.191650,17.778660 
	C734.171326,18.616739 735.151001,19.454817 735.868774,20.790844 
	C734.344543,21.258646 733.082153,21.228498 731.382080,21.167439 
	C717.864563,21.392740 704.785828,21.737017 691.704773,21.878897 
	C680.043701,22.005377 668.379456,21.993439 656.717896,21.891567 
	C632.807800,21.682697 608.899048,21.246336 584.988831,21.158131 
	C573.241333,21.114794 561.492676,21.798929 549.742798,21.871849 
	C529.191284,21.999392 508.638397,21.909618 488.086090,21.910387 
	C475.643799,21.910852 463.201538,21.910254 450.759247,21.910301 
	C438.317169,21.910351 425.875122,21.911018 413.433044,21.910685 
	C393.488556,21.910147 373.544067,21.908150 353.599579,21.908270 
	C261.854187,21.908823 170.108780,21.902288 78.363388,21.917078 
	C59.591213,21.920105 40.819057,22.003780 21.650532,22.034557 
	C20.457380,22.034468 19.660585,22.050100 18.863791,22.065731 
	C18.633762,17.586426 22.206675,18.054348 24.753822,17.954905 
	C35.855080,17.521502 46.966850,17.357533 58.841782,17.380352 
	C62.736118,17.490934 65.863480,17.316877 68.990837,17.142820 
z"/>
<path fill="#95D2D6" opacity="1.000000" stroke="none" 
	d="
M34.832634,246.177948 
	C31.515398,246.154404 28.198162,246.130875 24.432377,245.679214 
	C23.992298,244.419479 24.000767,243.587875 24.476994,242.786087 
	C36.301895,242.575821 47.659042,242.335724 59.325150,242.367523 
	C67.037155,242.759811 74.440575,242.979919 81.843079,242.952499 
	C84.891266,242.941208 87.937477,242.397491 91.430023,242.072327 
	C94.255608,242.063614 96.635742,242.078537 99.324562,242.365906 
	C107.698555,242.759613 115.763992,242.965515 123.829132,242.954941 
	C126.548004,242.951385 129.266159,242.398499 132.363510,242.075317 
	C133.500732,242.070267 134.259094,242.086563 135.326752,242.373901 
	C144.419189,242.460403 153.202332,242.275879 162.415726,242.069183 
	C164.569199,242.062469 166.292435,242.077942 168.324112,242.366241 
	C184.830032,242.679840 201.027481,242.720596 217.614059,242.715881 
	C222.925476,242.696716 227.847778,242.723038 233.212250,242.832703 
	C234.846375,242.860016 236.038345,242.803986 237.621414,242.704590 
	C244.346909,242.471573 250.681290,242.281937 257.324341,242.364807 
	C265.416870,242.456696 273.200745,242.276077 281.451904,242.072021 
	C286.951447,242.063553 291.983673,242.078522 297.324615,242.365875 
	C304.706207,242.757935 311.779694,242.988754 318.851654,242.948929 
	C322.230713,242.929901 325.606842,242.397354 329.451660,242.074158 
	C334.951385,242.066055 339.983795,242.081207 345.325012,242.368500 
	C360.498016,242.677612 375.362213,242.714569 390.484863,242.748001 
	C391.087921,242.749039 391.432526,242.753616 392.261139,242.840485 
	C419.910797,242.948776 447.076477,242.986816 474.242096,242.962311 
	C475.489868,242.961182 476.737122,242.398026 478.417847,242.073685 
	C482.160126,242.287079 485.469116,242.523422 489.262177,242.841095 
	C503.236267,242.870682 516.726318,242.818909 530.477234,242.761993 
	C531.085938,242.759552 531.433777,242.762253 532.265503,242.845245 
	C543.913391,242.950424 555.077515,243.003922 566.241211,242.960251 
	C567.489929,242.955353 568.736572,242.398941 570.452148,242.073944 
	C576.285278,242.065186 581.650391,242.080795 587.295288,242.356323 
	C590.045105,242.442154 592.515198,242.268082 595.453308,242.071014 
	C602.205444,242.282761 608.489502,242.517532 615.257690,242.835693 
	C640.903687,242.862595 666.065552,242.806091 691.680908,242.762451 
	C704.354675,242.780182 716.575012,242.785019 729.210815,242.862213 
	C730.737122,242.921967 731.847778,242.909378 733.235046,243.118713 
	C733.768982,244.004822 734.026367,244.668976 734.283752,245.333130 
	C725.880981,245.606140 717.478149,245.879135 708.135132,246.094269 
	C706.362000,246.019348 705.529175,245.987305 704.696289,245.987289 
	C482.904663,245.985886 261.113068,245.986359 39.321434,245.995361 
	C37.825165,245.995422 36.328899,246.114471 34.832634,246.177948 
z"/>
<path fill="#B8DFE3" opacity="1.000000" stroke="none" 
	d="
M34.989334,246.542908 
	C36.328899,246.114471 37.825165,245.995422 39.321434,245.995361 
	C261.113068,245.986359 482.904663,245.985886 704.696289,245.987289 
	C705.529175,245.987305 706.362000,246.019348 707.676758,246.100647 
	C706.278015,246.764542 704.398499,247.883575 702.516541,247.887695 
	C658.034485,247.985138 613.552063,247.961685 569.069763,247.962021 
	C393.139679,247.963303 217.209564,247.968765 41.279480,247.922958 
	C39.234913,247.922424 37.190514,247.260849 34.989334,246.542908 
z"/>
<path fill="#B1D6DD" opacity="1.000000" stroke="none" 
	d="
M734.655640,245.158966 
	C734.026367,244.668976 733.768982,244.004822 733.244507,242.802734 
	C732.688049,241.521530 732.398560,240.778275 732.081421,239.565002 
	C732.041809,168.413345 732.031433,97.731682 732.009644,27.050030 
	C732.009033,25.099453 731.885803,23.148911 731.819763,21.198351 
	C733.082153,21.228498 734.344543,21.258646 735.863342,21.164532 
	C736.124146,93.979797 736.136108,166.919327 736.086792,239.858826 
	C736.085632,241.567719 735.396057,243.276138 734.655640,245.158966 
z"/>
<path fill="#AFCCD0" opacity="1.000000" stroke="none" 
	d="
M18.852066,22.527670 
	C19.660585,22.050100 20.457380,22.034468 21.661263,22.353525 
	C22.057640,23.114676 22.046932,23.541136 21.786091,24.155506 
	C21.688004,25.230955 21.840050,26.118498 22.011845,27.473991 
	C22.022526,97.958649 22.013458,167.975357 21.734581,238.238831 
	C20.569891,239.984497 19.675011,241.483383 18.780130,242.982285 
	C18.800200,169.651398 18.820271,96.320496 18.852066,22.527670 
z"/>
<path fill="#B8DFE3" opacity="1.000000" stroke="none" 
	d="
M337.713684,16.829821 
	C336.254395,17.439089 334.517548,17.983910 332.782410,17.978594 
	C322.067108,17.945768 311.352203,17.789038 300.323944,17.408756 
	C300.553253,16.804934 301.097565,16.167423 301.638031,16.170628 
	C313.571259,16.241348 325.504059,16.382971 337.713684,16.829821 
z"/>
<path fill="#B8DFE3" opacity="1.000000" stroke="none" 
	d="
M138.714172,16.828691 
	C135.608932,17.438402 132.228073,17.957117 128.844772,17.973675 
	C121.443047,18.009901 114.040062,17.791260 106.324356,17.412340 
	C110.359535,16.823559 114.705101,16.282888 119.057037,16.225660 
	C125.514809,16.140741 131.977081,16.398218 138.714172,16.828691 
z"/>
<path fill="#B8DFE3" opacity="1.000000" stroke="none" 
	d="
M170.714050,16.833939 
	C162.872162,17.328531 154.755081,17.502556 146.324615,17.412441 
	C149.038986,16.782343 152.063400,16.148634 155.095306,16.110401 
	C160.207321,16.045940 165.324097,16.359055 170.714050,16.833939 
z"/>
<path fill="#B8DFE3" opacity="1.000000" stroke="none" 
	d="
M512.714355,16.832918 
	C505.207153,17.327398 497.423676,17.502485 489.326355,17.414488 
	C492.370209,16.784912 495.723114,16.177725 499.086731,16.111383 
	C503.532806,16.023697 507.987274,16.359659 512.714355,16.832918 
z"/>
<path fill="#B8DFE3" opacity="1.000000" stroke="none" 
	d="
M457.713989,16.826180 
	C450.541199,17.321772 443.090515,17.499800 435.325684,17.415009 
	C442.486420,16.937668 449.961243,16.723143 457.713989,16.826180 
z"/>
<path fill="#B8DFE3" opacity="1.000000" stroke="none" 
	d="
M482.715881,16.832657 
	C478.105438,17.543297 473.220459,17.935589 468.130096,18.018557 
	C472.763580,17.310925 477.602478,16.912615 482.715881,16.832657 
z"/>
<path fill="#B1D6DD" opacity="1.000000" stroke="none" 
	d="
M18.565277,243.224136 
	C19.675011,241.483383 20.569891,239.984497 21.967463,238.422821 
	C22.983181,239.825470 23.496206,241.290863 24.009235,242.756271 
	C24.000767,243.587875 23.992298,244.419479 23.975689,245.669037 
	C21.417847,246.664917 18.635225,247.742020 18.565277,243.224136 
z"/>
<path fill="#B8DFE3" opacity="1.000000" stroke="none" 
	d="
M202.715881,16.823727 
	C198.206070,17.318316 193.420090,17.496559 188.322571,17.411953 
	C192.820587,16.935194 197.630157,16.721289 202.715881,16.823727 
z"/>
<path fill="#B8DFE3" opacity="1.000000" stroke="none" 
	d="
M697.719849,16.840096 
	C694.246216,17.420988 690.503235,17.684473 686.289673,17.870562 
	C689.696167,17.369673 693.573364,16.946182 697.719849,16.840096 
z"/>
<path fill="#B8DFE3" opacity="1.000000" stroke="none" 
	d="
M536.720825,16.830151 
	C533.201782,17.318752 529.411743,17.493195 525.315796,17.406105 
	C528.823181,16.935045 532.636536,16.725517 536.720825,16.830151 
z"/>
<path fill="#B8DFE3" opacity="1.000000" stroke="none" 
	d="
M408.720367,16.832067 
	C405.201538,17.320770 401.412354,17.494671 397.317200,17.407612 
	C400.824127,16.936857 404.637085,16.727062 408.720367,16.832067 
z"/>
<path fill="#B8DFE3" opacity="1.000000" stroke="none" 
	d="
M717.029175,17.430969 
	C713.715881,17.840143 710.240295,17.895353 706.290771,17.873573 
	C709.311218,14.656006 713.085632,15.813066 717.029175,17.430969 
z"/>
<path fill="#B8DFE3" opacity="1.000000" stroke="none" 
	d="
M68.727081,16.832493 
	C65.863480,17.316877 62.736118,17.490934 59.310196,17.408535 
	C62.162201,16.942108 65.312759,16.732138 68.727081,16.832493 
z"/>
<path fill="#B8DFE3" opacity="1.000000" stroke="none" 
	d="
M555.750000,16.843887 
	C553.847229,17.312294 551.703369,17.479500 549.285522,17.399109 
	C551.177307,16.948568 553.343079,16.745628 555.750000,16.843887 
z"/>
<path fill="#B8DFE3" opacity="1.000000" stroke="none" 
	d="
M569.761963,16.846596 
	C568.171143,17.305920 566.350281,17.468954 564.269409,17.386105 
	C565.850159,16.943583 567.691101,16.746944 569.761963,16.846596 
z"/>
<path fill="#B8DFE3" opacity="1.000000" stroke="none" 
	d="
M216.796967,16.863585 
	C215.813217,17.301601 214.633652,17.457258 213.231934,17.380611 
	C214.206909,16.959278 215.404007,16.770252 216.796967,16.863585 
z"/>
<path fill="#B8DFE3" opacity="1.000000" stroke="none" 
	d="
M73.823730,16.874069 
	C73.127258,17.294104 72.260948,17.443367 71.201828,17.370510 
	C71.890648,16.966692 72.772270,16.784994 73.823730,16.874069 
z"/>
<path fill="#B8DFE3" opacity="1.000000" stroke="none" 
	d="
M733.081665,17.481487 
	C732.341248,17.831066 731.490784,17.883471 730.218201,17.852997 
	C730.854553,17.574850 731.913086,17.379583 733.081665,17.481487 
z"/>
<path fill="#F6F7F8" opacity="1.000000" stroke="none" 
	d="
M24.476992,242.786087 
	C23.496206,241.290863 22.983181,239.825470 22.237272,238.176056 
	C22.013458,167.975357 22.022526,97.958649 22.250858,27.284023 
	C22.325489,25.739933 22.180857,24.853764 22.036224,23.967596 
	C22.046932,23.541136 22.057640,23.114676 22.057621,22.369247 
	C40.819057,22.003780 59.591213,21.920105 78.363388,21.917078 
	C170.108780,21.902288 261.854187,21.908823 353.599579,21.908270 
	C373.544067,21.908150 393.488556,21.910147 413.433044,21.910685 
	C425.875122,21.911018 438.317169,21.910351 450.759247,21.910301 
	C463.201538,21.910254 475.643799,21.910852 488.086090,21.910387 
	C508.638397,21.909618 529.191284,21.999392 549.742798,21.871849 
	C561.492676,21.798929 573.241333,21.114794 584.988831,21.158131 
	C608.899048,21.246336 632.807800,21.682697 656.717896,21.891567 
	C668.379456,21.993439 680.043701,22.005377 691.704773,21.878897 
	C704.785828,21.737017 717.864563,21.392740 731.382080,21.167439 
	C731.885803,23.148911 732.009033,25.099453 732.009644,27.050030 
	C732.031433,97.731682 732.041809,168.413345 731.773315,239.680008 
	C730.593628,241.106628 729.694458,241.948257 728.795288,242.789871 
	C716.575012,242.785019 704.354675,242.780182 691.499390,242.413574 
	C689.644775,241.719986 688.425903,241.101852 687.205383,241.098770 
	C664.470459,241.041077 641.735229,241.026337 619.000549,241.129257 
	C617.589172,241.135635 616.182434,242.187088 614.773560,242.752319 
	C608.489502,242.517532 602.205444,242.282761 595.194092,241.778458 
	C591.983032,241.704742 589.499329,241.900574 587.015564,242.096405 
	C581.650391,242.080795 576.285278,242.065186 570.166260,241.767593 
	C557.779907,241.346970 546.147522,241.169800 534.514832,241.144333 
	C533.604980,241.142334 532.692749,242.199860 531.781616,242.764954 
	C531.433777,242.762253 531.085938,242.759552 530.300537,242.409988 
	C529.146362,241.733154 528.431274,241.119400 527.712891,241.115509 
	C515.804932,241.050995 503.896088,241.019394 491.988892,241.131989 
	C490.913574,241.142151 489.848145,242.192459 488.778137,242.759735 
	C485.469116,242.523422 482.160126,242.287079 478.131531,241.767853 
	C476.935547,241.353455 476.459229,241.107346 475.982635,241.106812 
	C449.161285,241.077408 422.339874,241.045624 395.518768,241.129715 
	C394.269897,241.133621 393.024261,242.191299 391.777130,242.758209 
	C391.432526,242.753616 391.087921,242.749039 390.303894,242.398743 
	C388.818451,241.721420 387.773865,241.106674 386.726135,241.101257 
	C373.865265,241.034683 361.003845,241.033264 348.143005,241.101822 
	C347.098969,241.107376 346.058380,241.749863 345.016174,242.096375 
	C339.983795,242.081207 334.951385,242.066055 329.165802,241.767792 
	C319.326416,241.341705 310.240509,241.152634 301.153839,241.104965 
	C299.776276,241.097717 298.395294,241.747559 297.015900,242.093475 
	C291.983673,242.078522 286.951447,242.063553 281.165405,241.766495 
	C272.612976,241.687042 264.814331,241.889679 257.015686,242.092300 
	C250.681290,242.281937 244.346909,242.471573 237.482544,242.403824 
	C235.558411,242.347427 234.164246,242.548401 232.770081,242.749374 
	C227.847778,242.723038 222.925476,242.696716 217.481049,242.409760 
	C216.425079,241.823425 215.892975,241.216370 215.357132,241.213058 
	C200.791534,241.123032 186.225494,241.069901 171.659729,241.101456 
	C170.444336,241.104095 169.230316,241.747635 168.015656,242.093399 
	C166.292435,242.077942 164.569199,242.062469 162.145538,241.772995 
	C154.349625,241.351105 147.254395,241.130341 140.158524,241.108032 
	C138.445892,241.102646 136.731201,241.753708 135.017441,242.102875 
	C134.259094,242.086563 133.500732,242.070267 132.077087,241.769669 
	C121.661057,241.341797 111.910515,241.165466 102.159248,241.102203 
	C101.113647,241.095428 100.063774,241.747192 99.015884,242.093475 
	C96.635742,242.078537 94.255608,242.063614 91.143738,241.766495 
	C81.325867,241.341568 72.239975,241.152695 63.153351,241.105377 
	C61.776051,241.098190 60.395325,241.749115 59.016186,242.095627 
	C47.659042,242.335724 36.301895,242.575821 24.476992,242.786087 
M409.398376,148.465393 
	C410.899811,149.659149 412.401245,150.852905 413.952911,152.832489 
	C415.067505,157.596649 417.682739,158.806107 425.322235,157.970444 
	C428.866791,157.582703 431.126587,156.005707 431.031891,151.960114 
	C430.915619,146.991455 431.059814,142.016693 431.900208,137.020432 
	C433.255096,137.020874 434.610016,137.021317 436.005035,137.851898 
	C436.981049,142.017639 437.931152,146.189636 438.938904,150.347687 
	C440.589020,157.156403 445.719757,160.033203 452.359283,158.346832 
	C456.777405,157.224686 458.958221,154.642670 459.997467,150.295654 
	C461.377350,144.524185 463.295624,138.881439 464.982574,133.183395 
	C465.587097,133.286911 466.191620,133.390427 466.796143,133.493958 
	C466.893829,135.210846 466.979553,136.928528 467.091431,138.644485 
	C467.402924,143.421753 467.554321,148.217773 468.095367,152.969223 
	C468.558228,157.034103 471.978088,158.378235 475.270660,158.650162 
	C478.497620,158.916672 482.296234,159.073029 483.827881,154.898468 
	C483.827881,154.898468 483.846649,154.824036 484.565399,154.858215 
	C487.177826,151.145676 489.232605,150.537750 493.206512,154.169830 
	C499.926147,160.311401 508.258545,162.205734 516.670471,157.451218 
	C521.048340,154.976837 524.382263,154.635269 529.001831,157.204926 
	C536.907837,161.602707 541.509033,158.643250 542.035156,149.823349 
	C542.113098,148.517136 542.814758,147.196152 542.673401,145.944626 
	C542.551697,144.866974 541.639038,143.878662 541.085754,141.985138 
	C541.107300,140.177231 541.156006,138.369171 541.145142,136.561462 
	C541.117981,132.043121 541.063782,127.524948 541.095825,122.374901 
	C541.421997,121.855469 541.748169,121.336044 542.516479,121.423592 
	C547.733215,121.741608 549.626465,124.497414 549.131104,129.641296 
	C548.750427,133.594589 549.060303,137.613876 549.053711,141.603790 
	C549.030823,155.552368 561.369446,163.860977 574.377380,158.653503 
	C580.099915,156.362610 581.938049,151.071564 578.226562,146.219131 
	C576.828369,144.391083 574.121277,143.596024 572.101685,142.198822 
	C570.976257,141.420227 569.378235,140.515381 569.139282,139.417892 
	C568.440430,136.208649 568.052795,132.875565 568.034729,129.588303 
	C568.011902,125.440903 568.495728,121.904640 574.386230,121.629318 
	C578.159119,121.452980 579.956116,117.713150 579.870483,113.860069 
	C579.785339,110.030144 577.985474,106.636658 574.085754,106.282310 
	C570.252869,105.934036 568.717041,104.644196 568.673767,100.934608 
	C568.647034,98.637703 568.680176,96.150497 567.830322,94.104317 
	C566.919861,91.912476 565.370544,88.997169 563.462891,88.385887 
	C556.557678,86.173195 549.593140,91.938263 548.939575,99.272537 
	C548.723938,101.693184 547.678223,105.339516 545.990967,106.071220 
	C541.900269,107.845253 541.770203,110.637352 541.265991,114.059639 
	C539.307922,113.019165 537.265137,112.107986 535.418274,110.897758 
	C533.912292,109.910851 532.744263,107.709740 531.247070,107.528572 
	C524.707520,106.737236 518.026428,105.669128 511.543243,106.273674 
	C505.320374,106.853935 498.640594,107.791039 494.172791,113.439758 
	C490.142303,118.535683 491.454224,123.128166 497.555237,124.913589 
	C498.412445,125.164444 499.201843,125.646980 500.133667,126.073036 
	C495.808014,130.050034 491.768768,133.763672 486.915436,138.225800 
	C486.915436,130.718079 487.068268,123.979225 486.798004,117.257385 
	C486.737427,115.750816 485.195312,114.303818 484.225555,112.057640 
	C484.262482,110.762794 484.299438,109.467941 485.083618,108.042328 
	C488.067139,104.659103 487.681335,98.852364 484.221497,96.062492 
	C484.205475,95.032837 484.189453,94.003181 484.663208,92.492111 
	C483.698975,91.328926 482.827606,89.265221 481.754883,89.154633 
	C476.419586,88.604668 471.028412,88.396263 465.663818,88.485077 
	C464.466064,88.504906 463.296082,90.204048 461.677155,91.477516 
	C461.431488,91.971451 461.185822,92.465385 460.354004,92.982414 
	C459.901276,93.319778 459.448578,93.657143 458.412445,94.060875 
	C458.294708,94.712601 458.176971,95.364334 458.029236,96.668915 
	C457.999603,97.103592 457.969940,97.538261 457.263885,98.114365 
	C456.861267,100.081238 456.458618,102.048111 456.036804,104.753532 
	C455.997528,105.491180 455.958252,106.228821 455.202850,107.148972 
	C454.810364,108.777245 454.417847,110.405518 453.945740,112.736801 
	C453.310944,114.497810 452.676117,116.258820 451.285767,118.001427 
	C449.543091,117.325050 447.800446,116.648674 445.994537,115.201263 
	C444.253845,108.758072 442.621674,102.282219 440.699554,95.893600 
	C440.190247,94.200714 438.788757,92.776230 437.943787,91.095322 
	C437.943787,91.095322 437.771301,91.193039 437.615143,90.457977 
	C431.185425,86.424828 424.224030,87.440086 417.515442,88.989090 
	C414.055359,89.788010 412.899170,92.800636 413.299011,96.875130 
	C413.854034,102.530777 413.200928,108.304977 412.325714,114.082039 
	C410.902161,114.388008 409.478638,114.693985 407.935699,114.313667 
	C402.764465,106.652657 392.994812,102.774963 385.573608,105.882729 
	C381.220032,107.705856 377.329865,107.940453 372.652313,106.613655 
	C364.840607,104.397873 358.096832,106.792397 358.990082,117.110603 
	C359.204651,119.588936 359.147614,122.112556 358.952454,124.594666 
	C358.865417,125.701370 358.127258,126.756882 357.477692,128.339951 
	C354.233429,122.449455 352.406311,116.253258 348.324493,112.526657 
	C344.203156,108.764000 338.018219,106.176720 332.420319,105.420311 
	C326.779083,104.658028 320.478546,105.968803 314.944641,107.808456 
	C303.751953,111.529236 297.963074,123.087379 300.241699,137.807465 
	C301.892609,148.472427 307.552490,156.749374 326.100006,159.816086 
	C338.006409,161.784714 350.129242,155.192856 356.946075,141.619598 
	C357.871033,144.757767 358.876495,146.692032 358.940826,148.657104 
	C359.156158,155.232925 358.796997,161.831131 359.110840,168.399139 
	C359.414093,174.745483 363.754944,177.888855 369.934387,176.795242 
	C376.927979,175.557556 378.857422,172.895859 378.942322,164.368805 
	C379.010620,157.509933 379.010620,157.509933 385.202667,159.497192 
	C390.237518,161.113052 397.613068,159.306152 400.319153,155.364868 
	C402.590363,152.956268 404.861603,150.547653 407.749878,148.079071 
	C408.161987,148.026093 408.574127,147.973114 409.398376,148.465393 
M634.945129,146.890884 
	C635.057739,144.314453 635.170349,141.738007 635.282959,139.161575 
	C635.266357,137.788162 636.671265,136.498566 636.836121,135.066254 
	C637.761475,127.025360 636.491150,119.432014 630.707642,113.292160 
	C621.841248,103.879486 602.830688,102.052116 592.617615,110.139000 
	C579.715088,120.355469 578.336060,141.502380 589.368652,151.712570 
	C596.162231,157.999756 604.929382,160.074783 613.708984,159.554123 
	C618.520142,159.268829 623.145264,155.844650 628.379333,153.407074 
	C630.337036,151.309052 632.294739,149.211014 634.945129,146.890884 
M187.676407,168.777023 
	C192.640411,166.248886 193.412064,161.701202 188.951584,157.133087 
	C182.666565,150.696381 179.611359,143.614273 180.444885,134.357773 
	C181.233093,125.604599 180.628876,116.725563 180.627228,107.901878 
	C180.625824,100.410110 180.716110,92.916252 180.568466,85.427208 
	C180.445084,79.169083 177.037338,75.487175 171.178741,75.425972 
	C139.746353,75.077866 108.314034,74.723099 76.881310,74.408417 
	C75.741829,74.397003 74.594742,74.760963 73.457397,74.981895 
	C65.320236,76.562523 64.210686,77.840752 64.196793,86.257584 
	C64.168228,103.570824 64.000160,120.888466 64.350143,138.194977 
	C64.460625,143.658661 62.650211,147.728271 59.247707,151.681564 
	C56.899853,154.409470 54.681217,157.458893 53.274738,160.737778 
	C51.128326,165.741623 53.094212,168.762619 58.395485,169.590561 
	C60.025127,169.845078 61.716358,169.739258 63.379436,169.740677 
	C102.667427,169.774338 141.955444,169.816544 181.243378,169.777237 
	C183.145706,169.775345 185.047318,169.044189 187.676407,168.777023 
M207.258896,92.953278 
	C206.928589,94.896248 206.327240,96.837151 206.312454,98.782516 
	C206.223740,110.445084 206.179398,122.109665 206.308533,133.771500 
	C206.374649,139.740967 206.906479,145.703873 207.087936,151.673996 
	C207.218811,155.979965 209.932404,157.385330 213.575729,157.757111 
	C215.390335,157.942276 217.241486,157.733932 219.069733,157.827667 
	C223.570190,158.058365 225.439453,155.487381 225.671448,151.462799 
	C225.862900,148.141647 225.715195,144.800522 225.704865,141.468262 
	C225.683838,134.685684 225.680603,134.659256 232.600327,134.750351 
	C243.630722,134.895538 253.304703,132.065369 259.996613,122.498589 
	C260.211792,122.190987 260.874725,122.196609 262.152985,121.801483 
	C262.512207,123.801025 263.087616,125.590004 263.112274,127.386543 
	C263.217407,135.049576 263.072083,142.716171 263.190308,150.378815 
	C263.278290,156.081970 265.561432,157.777679 272.568268,157.753448 
	C278.583801,157.732651 280.670959,155.896698 280.754517,150.300247 
	C280.839050,144.636459 280.722290,138.969818 280.792175,133.305634 
	C280.889984,125.382034 283.438995,122.858925 291.261932,122.765610 
	C296.819092,122.699326 300.209778,118.418381 299.833099,111.943954 
	C299.594574,107.843414 296.029755,105.589134 290.524048,106.246376 
	C289.075836,106.419273 287.717590,107.280479 286.267578,107.518433 
	C283.897430,107.907379 281.481628,108.279137 279.092804,108.235229 
	C274.997742,108.159950 270.788116,107.045319 266.853699,107.710457 
	C263.464478,108.283447 261.920319,107.936157 261.059021,104.609352 
	C259.119568,97.118042 253.900787,92.803139 246.763153,90.658211 
	C235.044052,87.136520 223.104797,87.737625 211.189362,89.294510 
	C209.890198,89.464264 208.796738,91.208351 207.258896,92.953278 
z"/>
<path fill="#B8DFE3" opacity="1.000000" stroke="none" 
	d="
M392.261139,242.840485 
	C393.024261,242.191299 394.269897,241.133621 395.518768,241.129715 
	C422.339874,241.045624 449.161285,241.077408 475.982635,241.106812 
	C476.459229,241.107346 476.935547,241.353455 477.698303,241.790802 
	C476.737122,242.398026 475.489868,242.961182 474.242096,242.962311 
	C447.076477,242.986816 419.910797,242.948776 392.261139,242.840485 
z"/>
<path fill="#B8DFE3" opacity="1.000000" stroke="none" 
	d="
M615.257690,242.835709 
	C616.182434,242.187088 617.589172,241.135635 619.000549,241.129257 
	C641.735229,241.026337 664.470459,241.041077 687.205383,241.098770 
	C688.425903,241.101852 689.644775,241.719986 691.045898,242.400696 
	C666.065552,242.806091 640.903687,242.862595 615.257690,242.835709 
z"/>
<path fill="#B8DFE3" opacity="1.000000" stroke="none" 
	d="
M168.324112,242.366241 
	C169.230316,241.747635 170.444336,241.104095 171.659729,241.101456 
	C186.225494,241.069901 200.791534,241.123032 215.357132,241.213058 
	C215.892975,241.216370 216.425079,241.823425 217.091934,242.455231 
	C201.027481,242.720596 184.830032,242.679840 168.324112,242.366241 
z"/>
<path fill="#B8DFE3" opacity="1.000000" stroke="none" 
	d="
M345.325012,242.368500 
	C346.058380,241.749863 347.098969,241.107376 348.143005,241.101822 
	C361.003845,241.033264 373.865265,241.034683 386.726135,241.101257 
	C387.773865,241.106674 388.818451,241.721420 390.045441,242.402283 
	C375.362213,242.714569 360.498016,242.677612 345.325012,242.368500 
z"/>
<path fill="#B8DFE3" opacity="1.000000" stroke="none" 
	d="
M489.262177,242.841095 
	C489.848145,242.192459 490.913574,241.142151 491.988892,241.131989 
	C503.896088,241.019394 515.804932,241.050995 527.712891,241.115509 
	C528.431274,241.119400 529.146362,241.733154 530.039673,242.415131 
	C516.726318,242.818909 503.236267,242.870682 489.262177,242.841095 
z"/>
<path fill="#B8DFE3" opacity="1.000000" stroke="none" 
	d="
M532.265503,242.845245 
	C532.692749,242.199860 533.604980,241.142334 534.514832,241.144333 
	C546.147522,241.169800 557.779907,241.346970 569.698242,241.791962 
	C568.736572,242.398941 567.489929,242.955353 566.241211,242.960251 
	C555.077515,243.003922 543.913391,242.950424 532.265503,242.845245 
z"/>
<path fill="#B8DFE3" opacity="1.000000" stroke="none" 
	d="
M99.324562,242.365906 
	C100.063774,241.747192 101.113647,241.095428 102.159248,241.102203 
	C111.910515,241.165466 121.661057,241.341797 131.698212,241.791016 
	C129.266159,242.398499 126.548004,242.951385 123.829132,242.954941 
	C115.763992,242.965515 107.698555,242.759613 99.324562,242.365906 
z"/>
<path fill="#B8DFE3" opacity="1.000000" stroke="none" 
	d="
M59.325150,242.367523 
	C60.395325,241.749115 61.776051,241.098190 63.153351,241.105377 
	C72.239975,241.152695 81.325867,241.341568 90.698296,241.790131 
	C87.937477,242.397491 84.891266,242.941208 81.843079,242.952499 
	C74.440575,242.979919 67.037155,242.759811 59.325150,242.367523 
z"/>
<path fill="#B8DFE3" opacity="1.000000" stroke="none" 
	d="
M297.324615,242.365875 
	C298.395294,241.747559 299.776276,241.097717 301.153839,241.104965 
	C310.240509,241.152634 319.326416,241.341705 328.698456,241.791046 
	C325.606842,242.397354 322.230713,242.929901 318.851654,242.948929 
	C311.779694,242.988754 304.706207,242.757935 297.324615,242.365875 
z"/>
<path fill="#B8DFE3" opacity="1.000000" stroke="none" 
	d="
M135.326752,242.373917 
	C136.731201,241.753708 138.445892,241.102646 140.158524,241.108032 
	C147.254395,241.130341 154.349625,241.351105 161.715286,241.795166 
	C153.202332,242.275879 144.419189,242.460403 135.326752,242.373917 
z"/>
<path fill="#B8DFE3" opacity="1.000000" stroke="none" 
	d="
M257.324341,242.364807 
	C264.814331,241.889679 272.612976,241.687042 280.698120,241.789917 
	C273.200745,242.276077 265.416870,242.456696 257.324341,242.364807 
z"/>
<path fill="#B8DFE3" opacity="1.000000" stroke="none" 
	d="
M587.295288,242.356323 
	C589.499329,241.900574 591.983032,241.704742 594.726013,241.801468 
	C592.515198,242.268082 590.045105,242.442154 587.295288,242.356323 
z"/>
<path fill="#B8DFE3" opacity="1.000000" stroke="none" 
	d="
M729.210815,242.862213 
	C729.694458,241.948257 730.593628,241.106628 731.800964,240.150024 
	C732.398560,240.778275 732.688049,241.521530 732.968018,242.580795 
	C731.847778,242.909378 730.737122,242.921967 729.210815,242.862213 
z"/>
<path fill="#B8DFE3" opacity="1.000000" stroke="none" 
	d="
M233.212250,242.832703 
	C234.164246,242.548401 235.558411,242.347427 237.091446,242.447205 
	C236.038345,242.803986 234.846375,242.860016 233.212250,242.832703 
z"/>
<path fill="#B1D6DD" opacity="1.000000" stroke="none" 
	d="
M21.786091,24.155506 
	C22.180857,24.853764 22.325489,25.739933 22.231110,26.816071 
	C21.840050,26.118498 21.688004,25.230955 21.786091,24.155506 
z"/>
<path fill="#74E0FA" opacity="1.000000" stroke="none" 
	d="
M207.433380,92.587738 
	C208.796738,91.208351 209.890198,89.464264 211.189362,89.294510 
	C223.104797,87.737625 235.044052,87.136520 246.763153,90.658211 
	C253.900787,92.803139 259.119568,97.118042 261.059021,104.609352 
	C261.920319,107.936157 263.464478,108.283447 266.853699,107.710457 
	C270.788116,107.045319 274.997742,108.159950 279.092804,108.235229 
	C281.481628,108.279137 283.897430,107.907379 286.267578,107.518433 
	C287.717590,107.280479 289.075836,106.419273 290.524048,106.246376 
	C296.029755,105.589134 299.594574,107.843414 299.833099,111.943954 
	C300.209778,118.418381 296.819092,122.699326 291.261932,122.765610 
	C283.438995,122.858925 280.889984,125.382034 280.792175,133.305634 
	C280.722290,138.969818 280.839050,144.636459 280.754517,150.300247 
	C280.670959,155.896698 278.583801,157.732651 272.568268,157.753448 
	C265.561432,157.777679 263.278290,156.081970 263.190308,150.378815 
	C263.072083,142.716171 263.217407,135.049576 263.112274,127.386543 
	C263.087616,125.590004 262.512207,123.801025 262.152985,121.801483 
	C260.874725,122.196609 260.211792,122.190987 259.996613,122.498589 
	C253.304703,132.065369 243.630722,134.895538 232.600327,134.750351 
	C225.680603,134.659256 225.683838,134.685684 225.704865,141.468262 
	C225.715195,144.800522 225.862900,148.141647 225.671448,151.462799 
	C225.439453,155.487381 223.570190,158.058365 219.069733,157.827667 
	C217.241486,157.733932 215.390335,157.942276 213.575729,157.757111 
	C209.932404,157.385330 207.218811,155.979965 207.087936,151.673996 
	C206.906479,145.703873 206.374649,139.740967 206.308533,133.771500 
	C206.179398,122.109665 206.223740,110.445084 206.312454,98.782516 
	C206.327240,96.837151 206.928589,94.896248 207.433380,92.587738 
M221.548218,152.911469 
	C222.002930,147.674011 222.698090,142.442688 222.831650,137.197052 
	C222.927979,133.414886 224.207230,131.791901 228.131607,131.831192 
	C232.256836,131.872482 236.407959,131.488007 240.512833,130.997375 
	C252.696228,129.541168 259.609741,121.346756 258.982483,109.312813 
	C258.490662,99.876465 249.538300,92.204094 238.575058,91.999130 
	C231.252838,91.862251 223.926407,91.917824 216.602020,91.939514 
	C210.845093,91.956566 209.970978,92.829155 209.965195,98.643188 
	C209.948944,114.957031 209.949890,131.270966 209.993607,147.584747 
	C210.012253,154.538803 214.418991,156.889359 221.548218,152.911469 
M278.619263,113.818947 
	C276.774994,110.326454 273.864685,109.391350 270.206909,110.376007 
	C266.479309,111.379478 266.882080,114.407928 266.883759,117.252960 
	C266.890167,128.079849 266.943390,138.907425 266.830872,149.733215 
	C266.792450,153.430374 268.752014,154.179413 271.889465,154.152161 
	C274.854645,154.126373 277.125854,153.844849 277.188782,149.986557 
	C277.287964,143.904480 277.778015,137.829910 277.984497,131.748154 
	C278.285370,122.887215 281.480469,119.648094 290.460052,119.056511 
	C291.845825,118.965218 294.076447,118.554146 294.379028,117.727936 
	C295.162292,115.589211 295.796021,112.866028 295.055695,110.922279 
	C294.685028,109.949112 290.988281,109.476555 289.139801,109.997673 
	C285.674591,110.974594 282.459595,112.838898 278.619263,113.818947 
z"/>
<path fill="#C1F4FC" opacity="1.000000" stroke="none" 
	d="
M399.907959,155.894608 
	C397.613068,159.306152 390.237518,161.113052 385.202667,159.497192 
	C379.010620,157.509933 379.010620,157.509933 378.942322,164.368805 
	C378.857422,172.895859 376.927979,175.557556 369.934387,176.795242 
	C363.754944,177.888855 359.414093,174.745483 359.110840,168.399139 
	C358.796997,161.831131 359.156158,155.232925 358.940826,148.657104 
	C358.876495,146.692032 357.871033,144.757767 356.946075,141.619598 
	C350.129242,155.192856 338.006409,161.784714 326.100006,159.816086 
	C307.552490,156.749374 301.892609,148.472427 300.241699,137.807465 
	C297.963074,123.087379 303.751953,111.529236 314.944641,107.808456 
	C320.478546,105.968803 326.779083,104.658028 332.420319,105.420311 
	C338.018219,106.176720 344.203156,108.764000 348.324493,112.526657 
	C352.406311,116.253258 354.233429,122.449455 357.477692,128.339951 
	C358.127258,126.756882 358.865417,125.701370 358.952454,124.594666 
	C359.147614,122.112556 359.204651,119.588936 358.990082,117.110603 
	C358.096832,106.792397 364.840607,104.397873 372.652313,106.613655 
	C377.329865,107.940453 381.220032,107.705856 385.573608,105.882729 
	C392.994812,102.774963 402.764465,106.652657 407.858154,114.696030 
	C407.780640,115.078384 407.507843,115.158089 407.224243,115.086761 
	C405.994415,114.651077 405.048126,114.286705 403.928162,113.692680 
	C403.195496,112.938972 402.636566,112.414925 402.010895,111.544830 
	C396.654755,106.359612 390.701965,106.177032 384.428162,108.824493 
	C380.719360,110.389549 377.630524,111.424835 373.329559,108.955872 
	C366.287048,104.913132 361.019165,108.703232 361.015442,116.845047 
	C361.011749,124.986916 361.019379,133.128784 361.024292,141.270660 
	C361.029724,150.243317 360.907227,159.218719 361.094818,168.187592 
	C361.202881,173.353119 362.705597,174.064102 369.727234,174.101074 
	C374.082794,174.123993 376.286560,172.539001 376.074493,167.966949 
	C375.920715,164.651535 375.893677,161.310028 376.134308,158.003754 
	C376.290802,155.853271 376.940125,153.027039 380.010101,154.644058 
	C386.546722,158.086975 393.178284,157.107834 399.907959,155.894608 
M313.609406,111.882065 
	C300.567261,120.883507 298.998444,140.240387 310.821716,150.287262 
	C318.522339,156.830887 327.841248,157.082184 337.324188,155.436447 
	C342.959747,154.458435 347.610229,152.040451 350.754028,146.922241 
	C352.689880,143.770615 351.206635,142.136780 348.535278,142.205246 
	C344.568054,142.306915 340.218994,142.600052 336.764648,144.299744 
	C330.674347,147.296524 324.395264,147.808716 320.594208,143.747787 
	C319.288727,142.353058 318.451355,139.942825 318.567963,138.069229 
	C318.616882,137.283157 321.684845,136.138931 323.403625,136.096176 
	C331.391113,135.897476 339.393463,136.201553 347.373840,135.893936 
	C348.977875,135.832108 351.579041,134.145889 351.901337,132.779541 
	C354.022125,123.787811 348.066925,113.634109 339.410583,110.217461 
	C330.772522,106.808006 322.471588,107.877792 313.609406,111.882065 
M333.436768,141.853073 
	C333.126251,140.942490 332.862518,139.263367 332.497925,139.241180 
	C329.153229,139.037552 325.791016,139.121323 321.776398,139.121323 
	C324.921234,145.170273 328.908386,143.772522 333.436768,141.853073 
z"/>
<path fill="#4EDAF9" opacity="1.000000" stroke="none" 
	d="
M484.336365,108.173096 
	C484.299438,109.467941 484.262482,110.762794 484.143433,112.914284 
	C483.989746,127.455299 483.918182,141.139664 483.846649,154.824036 
	C483.846649,154.824036 483.827881,154.898468 483.409302,154.894745 
	C482.196198,155.130493 481.412292,155.416199 480.605408,155.602264 
	C472.263428,157.526001 469.964813,155.717010 469.979126,147.268921 
	C469.992401,139.446014 470.088745,131.621567 469.949280,123.801338 
	C469.915344,121.897186 469.100037,120.006973 468.644012,118.110352 
	C468.153656,118.116165 467.663300,118.121986 467.172974,118.127800 
	C466.448273,119.718758 465.507446,121.248291 465.034973,122.910912 
	C462.539368,131.692154 460.128204,140.497910 457.757660,149.313965 
	C456.597687,153.627991 454.475311,156.141266 449.427612,156.120789 
	C444.316406,156.100052 442.326263,153.371628 441.228271,149.127670 
	C438.944794,140.301575 436.715363,131.460861 434.337799,122.660187 
	C433.650848,120.117508 432.534943,117.690735 431.615692,115.210831 
	C430.305511,116.141876 429.999298,116.725922 429.981232,117.318756 
	C429.652283,128.103943 429.192352,138.889267 429.131927,149.676651 
	C429.105072,154.481537 427.136627,156.124954 422.502533,156.086426 
	C417.937531,156.048492 415.816162,154.514465 415.860199,149.664734 
	C416.020416,132.022781 416.085602,114.376640 415.847473,96.736656 
	C415.784363,92.062775 417.942200,90.173531 421.936737,90.191650 
	C427.216339,90.215591 432.493225,90.831551 437.771301,91.193039 
	C437.771301,91.193039 437.943787,91.095322 437.887085,91.552032 
	C440.791840,103.185318 443.693024,114.378578 446.779785,125.520424 
	C447.241699,127.187737 448.574066,128.613892 449.503784,130.151596 
	C450.165436,130.103409 450.827087,130.055206 451.488739,130.007004 
	C454.639221,117.657776 457.789673,105.308548 460.940155,92.959328 
	C461.185822,92.465385 461.431488,91.971451 462.311340,91.286545 
	C464.069519,90.868927 465.191559,90.458344 466.317810,90.446320 
	C472.391266,90.381454 478.778992,88.228867 484.173462,92.973526 
	C484.189453,94.003181 484.205475,95.032837 484.144684,96.906982 
	C484.157349,101.225349 484.246857,104.699219 484.336365,108.173096 
M443.057373,119.571922 
	C441.646790,114.622841 440.252075,109.669167 438.822540,104.725563 
	C434.841644,90.958939 438.200439,93.198677 423.049469,92.865852 
	C419.038422,92.777733 417.875946,94.433380 417.904846,98.221245 
	C418.030762,114.715439 417.977081,131.211258 417.929016,147.706314 
	C417.919434,150.994980 418.308319,153.945587 422.466553,153.974304 
	C426.617950,154.002960 427.091644,151.098755 427.073761,147.781403 
	C427.017090,137.284805 426.869385,126.782501 427.162018,116.293701 
	C427.259033,112.817345 428.583527,109.375237 429.346863,105.917465 
	C429.933319,105.988983 430.519806,106.060509 431.106293,106.132034 
	C431.684906,107.433838 432.438995,108.687080 432.814880,110.045006 
	C436.257843,122.482979 439.422668,135.004303 443.205048,147.336792 
	C443.992584,149.904572 446.605743,152.779404 449.072052,153.752472 
	C452.378937,155.057175 454.589355,152.108170 455.478149,149.004135 
	C457.801331,140.891006 459.789124,132.680649 462.175934,124.587303 
	C464.010254,118.367378 466.247864,112.266396 468.306183,106.112526 
	C468.978119,106.166328 469.650055,106.220131 470.321991,106.273933 
	C470.861420,109.064018 471.820831,111.847237 471.866577,114.645401 
	C472.051727,125.972481 471.975006,137.304199 471.950836,148.634094 
	C471.944244,151.727280 472.974487,153.925430 476.413116,153.975861 
	C479.789459,154.025345 481.046875,152.018997 481.091370,148.842911 
	C481.156250,144.207565 481.416626,139.575089 481.491791,134.939743 
	C481.661133,124.493004 481.398132,114.023193 482.019684,103.605049 
	C482.500153,95.552109 480.630280,92.911156 472.511597,92.925209 
	C471.178650,92.927513 469.836700,93.029556 468.514526,92.911125 
	C465.033539,92.599335 463.280762,94.601082 462.298492,97.526680 
	C461.719360,99.251427 461.433899,101.072540 460.956238,102.834000 
	C458.653870,111.324516 456.525055,119.870331 453.893738,128.258194 
	C453.135773,130.674240 450.909332,132.629623 449.356201,134.796219 
	C447.922211,132.565170 446.160522,130.472107 445.146393,128.064194 
	C444.133575,125.659355 443.869171,122.939316 443.057373,119.571922 
z"/>
<path fill="#68C6F5" opacity="1.000000" stroke="none" 
	d="
M186.949265,168.652634 
	C185.047318,169.044189 183.145706,169.775345 181.243378,169.777237 
	C141.955444,169.816544 102.667427,169.774338 63.379436,169.740677 
	C61.716358,169.739258 60.025127,169.845078 58.395485,169.590561 
	C53.094212,168.762619 51.128326,165.741623 53.274738,160.737778 
	C54.681217,157.458893 56.899853,154.409470 59.247707,151.681564 
	C62.650211,147.728271 64.460625,143.658661 64.350143,138.194977 
	C64.000160,120.888466 64.168228,103.570824 64.196793,86.257584 
	C64.210686,77.840752 65.320236,76.562523 73.457397,74.981895 
	C74.594742,74.760963 75.741829,74.397003 76.881310,74.408417 
	C108.314034,74.723099 139.746353,75.077866 171.600403,75.837921 
	C172.000687,76.550644 171.981476,76.851562 171.499115,77.144409 
	C148.362839,77.434677 125.691887,77.733154 102.552155,77.994537 
	C92.452965,77.967560 82.822319,77.941597 73.192284,78.005974 
	C69.463303,78.030907 66.886406,79.146790 66.929428,83.755058 
	C67.113853,103.510559 67.090744,123.267998 67.100418,143.417358 
	C66.303192,145.735123 65.848793,147.858032 64.735458,149.546448 
	C61.943577,153.780457 58.853443,157.817825 55.648514,162.166229 
	C55.994148,168.302750 60.412411,166.749573 64.463196,166.867935 
	C74.280609,166.912491 83.631966,166.905014 93.432709,166.943466 
	C96.583084,166.980011 99.284088,166.970612 102.430786,166.992844 
	C105.259850,166.998611 107.643211,166.972748 110.493248,166.964600 
	C121.642715,166.999893 132.325500,167.017471 143.471558,167.060669 
	C149.055267,167.343323 154.176666,167.827652 159.296021,167.807053 
	C168.192535,167.771271 177.087814,167.423553 186.092743,167.398224 
	C186.450989,167.944092 186.700134,168.298370 186.949265,168.652634 
z"/>
<path fill="#B4F2FC" opacity="1.000000" stroke="none" 
	d="
M484.206024,154.841125 
	C483.918182,141.139664 483.989746,127.455299 484.198273,113.300156 
	C485.195312,114.303818 486.737427,115.750816 486.798004,117.257385 
	C487.068268,123.979225 486.915436,130.718079 486.915436,138.225800 
	C491.768768,133.763672 495.808014,130.050034 500.133667,126.073036 
	C499.201843,125.646980 498.412445,125.164444 497.555237,124.913589 
	C491.454224,123.128166 490.142303,118.535683 494.172791,113.439758 
	C498.640594,107.791039 505.320374,106.853935 511.543243,106.273674 
	C518.026428,105.669128 524.707520,106.737236 531.247070,107.528572 
	C532.744263,107.709740 533.912292,109.910851 535.418274,110.897758 
	C537.265137,112.107986 539.307922,113.019165 541.794067,114.391861 
	C542.239563,116.754921 542.156982,118.785767 542.074341,120.816605 
	C541.748169,121.336044 541.421997,121.855469 540.815918,122.537109 
	C540.041443,122.129471 539.546875,121.559631 538.787598,120.769615 
	C534.625488,110.952820 525.001770,106.240837 512.993591,108.229439 
	C506.893433,109.239655 500.752777,110.447083 496.703217,115.801468 
	C495.809052,116.983749 494.920715,119.052437 495.385040,120.127724 
	C495.833649,121.166611 498.105957,122.092651 499.445953,121.937195 
	C502.630737,121.567726 505.746765,120.563431 508.873962,119.751625 
	C512.047058,118.927910 515.239258,117.259644 518.349121,117.417603 
	C520.600037,117.531929 522.730164,120.024773 524.914124,121.456924 
	C523.169189,122.910484 521.641418,125.060135 519.638000,125.685265 
	C513.952637,127.459244 507.969849,128.285492 502.294983,130.086197 
	C494.651855,132.511429 491.020935,138.224777 492.055542,145.082825 
	C492.931610,150.889648 499.796783,156.435196 506.800964,155.879089 
	C511.449738,155.510010 515.932617,153.362076 520.567139,152.373016 
	C522.922668,151.870300 526.607178,151.118332 527.681274,152.302277 
	C530.897278,155.847031 534.757263,155.874268 538.080078,154.447998 
	C539.522095,153.829071 539.411499,149.593033 540.276367,146.753632 
	C540.723145,145.288513 540.899597,144.069672 541.076050,142.850845 
	C541.639038,143.878662 542.551697,144.866974 542.673401,145.944626 
	C542.814758,147.196152 542.113098,148.517136 542.035156,149.823349 
	C541.509033,158.643250 536.907837,161.602707 529.001831,157.204926 
	C524.382263,154.635269 521.048340,154.976837 516.670471,157.451218 
	C508.258545,162.205734 499.926147,160.311401 493.206512,154.169830 
	C489.232605,150.537750 487.177826,151.145676 484.206024,154.841125 
z"/>
<path fill="#ACF1FC" opacity="1.000000" stroke="none" 
	d="
M437.693237,90.825508 
	C432.493225,90.831551 427.216339,90.215591 421.936737,90.191650 
	C417.942200,90.173531 415.784363,92.062775 415.847473,96.736656 
	C416.085602,114.376640 416.020416,132.022781 415.860199,149.664734 
	C415.816162,154.514465 417.937531,156.048492 422.502533,156.086426 
	C427.136627,156.124954 429.105072,154.481537 429.131927,149.676651 
	C429.192352,138.889267 429.652283,128.103943 429.981232,117.318756 
	C429.999298,116.725922 430.305511,116.141876 431.615692,115.210831 
	C432.534943,117.690735 433.650848,120.117508 434.337799,122.660187 
	C436.715363,131.460861 438.944794,140.301575 441.228271,149.127670 
	C442.326263,153.371628 444.316406,156.100052 449.427612,156.120789 
	C454.475311,156.141266 456.597687,153.627991 457.757660,149.313965 
	C460.128204,140.497910 462.539368,131.692154 465.034973,122.910912 
	C465.507446,121.248291 466.448273,119.718758 467.172974,118.127800 
	C467.663300,118.121986 468.153656,118.116165 468.644012,118.110352 
	C469.100037,120.006973 469.915344,121.897186 469.949280,123.801338 
	C470.088745,131.621567 469.992401,139.446014 469.979126,147.268921 
	C469.964813,155.717010 472.263428,157.526001 480.605408,155.602264 
	C481.412292,155.416199 482.196198,155.130493 483.387207,154.863358 
	C482.296234,159.073029 478.497620,158.916672 475.270660,158.650162 
	C471.978088,158.378235 468.558228,157.034103 468.095367,152.969223 
	C467.554321,148.217773 467.402924,143.421753 467.091431,138.644485 
	C466.979553,136.928528 466.893829,135.210846 466.796143,133.493958 
	C466.191620,133.390427 465.587097,133.286911 464.982574,133.183395 
	C463.295624,138.881439 461.377350,144.524185 459.997467,150.295654 
	C458.958221,154.642670 456.777405,157.224686 452.359283,158.346832 
	C445.719757,160.033203 440.589020,157.156403 438.938904,150.347687 
	C437.931152,146.189636 436.981049,142.017639 435.960358,137.051270 
	C434.822052,132.942505 433.728424,129.634384 432.634796,126.326271 
	C432.120331,126.471481 431.605865,126.616692 431.091400,126.761902 
	C431.091400,130.189453 431.091400,133.617020 431.091431,137.044571 
	C431.059814,142.016693 430.915619,146.991455 431.031891,151.960114 
	C431.126587,156.005707 428.866791,157.582703 425.322235,157.970444 
	C417.682739,158.806107 415.067505,157.596649 413.962891,151.968735 
	C413.972870,146.262253 413.972870,141.419510 413.972870,135.444061 
	C411.750641,138.939163 410.434174,141.009689 409.124390,142.692444 
	C409.159607,139.863525 409.188110,137.422409 409.168579,134.545227 
	C409.146484,132.060608 409.172455,130.012024 409.433044,127.710976 
	C409.521545,125.583725 409.375427,123.708931 409.517212,121.867157 
	C410.188782,121.944084 410.572418,121.987991 410.968811,122.397972 
	C411.521637,124.088692 412.061646,125.413330 412.601654,126.737968 
	C413.067535,126.587288 413.533417,126.436600 413.999268,126.285919 
	C413.700897,124.857712 413.402496,123.429504 413.096802,121.557922 
	C413.081360,118.752502 413.073212,116.390465 413.065063,114.028427 
	C413.200928,108.304977 413.854034,102.530777 413.299011,96.875130 
	C412.899170,92.800636 414.055359,89.788010 417.515442,88.989090 
	C424.224030,87.440086 431.185425,86.424828 437.693237,90.825508 
z"/>
<path fill="#B3F0FB" opacity="1.000000" stroke="none" 
	d="
M542.295410,121.120102 
	C542.156982,118.785767 542.239563,116.754921 542.179688,114.396423 
	C541.770203,110.637352 541.900269,107.845253 545.990967,106.071220 
	C547.678223,105.339516 548.723938,101.693184 548.939575,99.272537 
	C549.593140,91.938263 556.557678,86.173195 563.462891,88.385887 
	C565.370544,88.997169 566.919861,91.912476 567.830322,94.104317 
	C568.680176,96.150497 568.647034,98.637703 568.673767,100.934608 
	C568.717041,104.644196 570.252869,105.934036 574.085754,106.282310 
	C577.985474,106.636658 579.785339,110.030144 579.870483,113.860069 
	C579.956116,117.713150 578.159119,121.452980 574.386230,121.629318 
	C568.495728,121.904640 568.011902,125.440903 568.034729,129.588303 
	C568.052795,132.875565 568.440430,136.208649 569.139282,139.417892 
	C569.378235,140.515381 570.976257,141.420227 572.101685,142.198822 
	C574.121277,143.596024 576.828369,144.391083 578.226562,146.219131 
	C581.938049,151.071564 580.099915,156.362610 574.377380,158.653503 
	C561.369446,163.860977 549.030823,155.552368 549.053711,141.603790 
	C549.060303,137.613876 548.750427,133.594589 549.131104,129.641296 
	C549.626465,124.497414 547.733215,121.741608 542.295410,121.120102 
M576.021912,113.629288 
	C575.799194,110.355255 574.318604,108.777603 570.819519,109.452721 
	C566.858887,110.216881 565.371826,107.914948 565.139954,104.408592 
	C565.030396,102.752274 565.105896,101.083694 565.098267,99.420670 
	C565.062744,91.678955 562.531494,90.073685 555.405090,92.903557 
	C551.918945,94.287910 551.976379,96.974625 552.065369,99.856422 
	C552.202637,104.303078 552.217346,108.351219 546.747192,110.316765 
	C543.492676,111.486176 544.046692,117.450066 547.529175,118.569687 
	C551.413147,119.818390 552.120178,122.285507 552.045166,125.768486 
	C551.930603,131.087769 551.979797,136.412262 552.047363,141.733429 
	C552.189636,152.941040 562.537537,159.820648 572.941956,155.335236 
	C574.477234,154.673340 575.878662,151.852036 575.863647,150.042084 
	C575.852112,148.655075 573.581909,146.195999 572.192383,146.104996 
	C566.903748,145.758560 565.369202,142.614853 565.185974,138.182724 
	C565.014404,134.031357 565.235657,129.863052 565.041687,125.713531 
	C564.832275,121.235550 566.331299,118.690903 571.255798,118.932556 
	C574.222290,119.078117 575.936951,117.540352 576.021912,113.629288 
z"/>
<path fill="#B7F3FC" opacity="1.000000" stroke="none" 
	d="
M627.854248,153.835846 
	C623.145264,155.844650 618.520142,159.268829 613.708984,159.554123 
	C604.929382,160.074783 596.162231,157.999756 589.368652,151.712570 
	C578.336060,141.502380 579.715088,120.355469 592.617615,110.139000 
	C602.830688,102.052116 621.841248,103.879486 630.707642,113.292160 
	C636.491150,119.432014 637.761475,127.025360 636.836121,135.066254 
	C636.671265,136.498566 635.266357,137.788162 635.282959,139.161575 
	C635.170349,141.738007 635.057739,144.314453 634.534180,146.659195 
	C635.107300,142.903580 633.138000,141.331757 630.107483,141.105347 
	C625.688843,140.775269 621.425476,140.546936 617.419312,143.813248 
	C614.493591,146.198700 610.462585,147.637146 607.162598,144.270157 
	C611.371948,143.808380 615.688904,144.691071 618.017090,139.040192 
	C613.381470,139.040192 609.292297,138.863983 605.241882,139.181564 
	C604.380981,139.249054 603.661194,141.115997 602.502258,142.045410 
	C599.460571,138.191147 601.147156,136.914032 604.999268,136.912460 
	C612.823730,136.909256 620.652100,136.780060 628.471069,136.991837 
	C633.108765,137.117477 635.132812,135.453918 635.060120,130.617783 
	C634.888062,119.173416 628.964355,111.256447 617.746033,108.827179 
	C613.910645,107.996651 609.812073,107.812447 605.885254,108.082619 
	C594.916687,108.837326 585.789490,118.318192 584.893311,128.646622 
	C583.319580,146.784256 593.545166,153.981064 603.484558,156.090195 
	C611.972473,157.891312 619.930664,156.730179 627.854248,153.835846 
z"/>
<path fill="#59DBFA" opacity="1.000000" stroke="none" 
	d="
M628.116821,153.621460 
	C619.930664,156.730179 611.972473,157.891312 603.484558,156.090195 
	C593.545166,153.981064 583.319580,146.784256 584.893311,128.646622 
	C585.789490,118.318192 594.916687,108.837326 605.885254,108.082619 
	C609.812073,107.812447 613.910645,107.996651 617.746033,108.827179 
	C628.964355,111.256447 634.888062,119.173416 635.060120,130.617783 
	C635.132812,135.453918 633.108765,137.117477 628.471069,136.991837 
	C620.652100,136.780060 612.823730,136.909256 604.999268,136.912460 
	C601.147156,136.914032 599.460571,138.191147 602.762268,142.243652 
	C604.505371,143.162933 605.614319,143.775467 606.723267,144.388000 
	C610.462585,147.637146 614.493591,146.198700 617.419312,143.813248 
	C621.425476,140.546936 625.688843,140.775269 630.107483,141.105347 
	C633.138000,141.331757 635.107300,142.903580 634.187805,146.770233 
	C632.294739,149.211014 630.337036,151.309052 628.116821,153.621460 
M596.099609,113.347176 
	C584.970886,121.911461 585.265625,131.714493 588.298645,141.362885 
	C592.144653,153.597458 606.967468,156.499176 617.541321,154.418259 
	C622.121033,153.516983 626.558960,150.587158 630.396851,147.696609 
	C632.847107,145.851212 632.337769,142.789383 628.367249,143.077911 
	C625.202942,143.307892 621.908264,144.109787 619.035034,145.441925 
	C614.326477,147.624969 609.760132,149.120804 604.732544,146.830795 
	C600.400330,144.857574 597.272827,140.260635 599.359802,137.610916 
	C601.002197,135.525665 604.839050,134.475159 607.795715,134.259262 
	C614.518250,133.768356 621.299805,134.000961 628.055481,134.087448 
	C631.308289,134.129074 632.565979,132.189667 632.879517,129.501190 
	C633.609314,123.243179 627.795044,114.253479 621.814392,111.997704 
	C613.303101,108.787361 604.931580,109.114090 596.099609,113.347176 
z"/>
<path fill="#79E4FB" opacity="1.000000" stroke="none" 
	d="
M409.216614,134.981277 
	C409.188110,137.422409 409.159607,139.863525 409.080872,143.036835 
	C408.948822,144.460724 408.867035,145.152451 408.485199,145.942642 
	C407.834381,146.740433 407.483582,147.439728 407.132812,148.139038 
	C404.861603,150.547653 402.590363,152.956268 400.113556,155.629730 
	C393.178284,157.107834 386.546722,158.086975 380.010101,154.644058 
	C376.940125,153.027039 376.290802,155.853271 376.134308,158.003754 
	C375.893677,161.310028 375.920715,164.651535 376.074493,167.966949 
	C376.286560,172.539001 374.082794,174.123993 369.727234,174.101074 
	C362.705597,174.064102 361.202881,173.353119 361.094818,168.187592 
	C360.907227,159.218719 361.029724,150.243317 361.024292,141.270660 
	C361.019379,133.128784 361.011749,124.986916 361.015442,116.845047 
	C361.019165,108.703232 366.287048,104.913132 373.329559,108.955872 
	C377.630524,111.424835 380.719360,110.389549 384.428162,108.824493 
	C390.701965,106.177032 396.654755,106.359612 401.630493,111.548584 
	C394.657928,108.228363 388.023773,107.989365 381.506622,112.188568 
	C378.631622,114.041023 376.562622,113.979492 373.635559,111.526543 
	C371.822632,110.007301 368.009064,110.158958 365.338318,110.721756 
	C364.222473,110.956879 363.092957,114.199173 363.073792,116.085411 
	C362.904541,132.730911 363.055328,149.379425 362.941162,166.025879 
	C362.911346,170.376221 364.260498,172.277145 368.991730,172.248734 
	C373.982025,172.218735 374.324768,169.536240 374.116608,165.822388 
	C373.995697,163.664886 374.068634,161.495026 374.093018,159.331161 
	C374.174255,152.119186 375.774933,151.023575 382.378357,153.633163 
	C394.089508,158.261261 404.076538,153.243881 407.515411,141.005661 
	C408.079865,138.996811 408.649414,136.989365 409.216614,134.981277 
z"/>
<path fill="#63B2EC" opacity="1.000000" stroke="none" 
	d="
M187.312836,168.714828 
	C186.700134,168.298370 186.450989,167.944092 186.370972,167.135986 
	C188.725021,163.697891 188.612701,160.917114 185.953598,158.224503 
	C179.813675,152.007156 177.452560,144.789719 177.799057,135.807129 
	C178.451096,118.903862 177.901505,101.954239 177.864410,84.700508 
	C177.292557,83.840660 176.707809,83.304192 176.102203,82.452881 
	C175.158737,81.043755 174.236130,79.949471 173.152405,78.632462 
	C172.649002,77.990692 172.306732,77.571663 171.964447,77.152626 
	C171.981476,76.851562 172.000687,76.550644 172.031189,76.031860 
	C177.037338,75.487175 180.445084,79.169083 180.568466,85.427208 
	C180.716110,92.916252 180.625824,100.410110 180.627228,107.901878 
	C180.628876,116.725563 181.233093,125.604599 180.444885,134.357773 
	C179.611359,143.614273 182.666565,150.696381 188.951584,157.133087 
	C193.412064,161.701202 192.640411,166.248886 187.312836,168.714828 
z"/>
<path fill="#ACF1FC" opacity="1.000000" stroke="none" 
	d="
M460.647095,92.970871 
	C457.789673,105.308548 454.639221,117.657776 451.488739,130.007004 
	C450.827087,130.055206 450.165436,130.103409 449.503784,130.151596 
	C448.574066,128.613892 447.241699,127.187737 446.779785,125.520424 
	C443.693024,114.378578 440.791840,103.185318 437.813660,91.618622 
	C438.788757,92.776230 440.190247,94.200714 440.699554,95.893600 
	C442.621674,102.282219 444.253845,108.758072 446.044006,115.960373 
	C447.170074,119.434433 448.246704,122.149376 449.323303,124.864326 
	C449.765411,124.785385 450.207489,124.706451 450.649567,124.627518 
	C451.113464,122.424957 451.577393,120.222389 452.041290,118.019829 
	C452.676117,116.258820 453.310944,114.497810 454.244232,112.161491 
	C455.001465,110.046280 455.460236,108.506378 455.919006,106.966476 
	C455.958252,106.228821 455.997528,105.491180 456.303192,104.143280 
	C457.026489,101.679672 457.483398,99.826302 457.940308,97.972939 
	C457.969940,97.538261 457.999603,97.103592 458.279419,96.165543 
	C458.684998,95.106293 458.840424,94.550400 458.995850,93.994507 
	C459.448578,93.657143 459.901276,93.319778 460.647095,92.970871 
z"/>
<path fill="#B3F0FB" opacity="1.000000" stroke="none" 
	d="
M539.052246,120.989792 
	C539.546875,121.559631 540.041443,122.129471 540.778259,122.853012 
	C541.063782,127.524948 541.117981,132.043121 541.145142,136.561462 
	C541.156006,138.369171 541.107300,140.177231 541.080933,142.417999 
	C540.899597,144.069672 540.723145,145.288513 540.009521,146.439209 
	C539.332336,137.910645 539.192261,129.450211 539.052246,120.989792 
z"/>
<path fill="#DAF7F9" opacity="1.000000" stroke="none" 
	d="
M408.785217,145.844162 
	C408.867035,145.152451 408.948822,144.460724 409.074158,143.424622 
	C410.434174,141.009689 411.750641,138.939163 413.972870,135.444061 
	C413.972870,141.419510 413.972870,146.262253 413.937775,151.575836 
	C412.401245,150.852905 410.899811,149.659149 409.176819,147.846649 
	C408.898560,146.766663 408.841888,146.305420 408.785217,145.844162 
z"/>
<path fill="#ACF1FC" opacity="1.000000" stroke="none" 
	d="
M484.418335,92.732819 
	C478.778992,88.228867 472.391266,90.381454 466.317810,90.446320 
	C465.191559,90.458344 464.069519,90.868927 462.529419,91.112801 
	C463.296082,90.204048 464.466064,88.504906 465.663818,88.485077 
	C471.028412,88.396263 476.419586,88.604668 481.754883,89.154633 
	C482.827606,89.265221 483.698975,91.328926 484.418335,92.732819 
z"/>
<path fill="#DFFAFC" opacity="1.000000" stroke="none" 
	d="
M431.495789,137.032501 
	C431.091400,133.617020 431.091400,130.189453 431.091400,126.761902 
	C431.605865,126.616692 432.120331,126.471481 432.634796,126.326271 
	C433.728424,129.634384 434.822052,132.942505 435.940308,136.636200 
	C434.610016,137.021317 433.255096,137.020874 431.495789,137.032501 
z"/>
<path fill="#B4F2FC" opacity="1.000000" stroke="none" 
	d="
M484.709961,108.107712 
	C484.246857,104.699219 484.157349,101.225349 484.203156,97.288849 
	C487.681335,98.852364 488.067139,104.659103 484.709961,108.107712 
z"/>
<path fill="#EBFBF9" opacity="1.000000" stroke="none" 
	d="
M412.695374,114.055237 
	C413.073212,116.390465 413.081360,118.752502 412.737732,121.555908 
	C411.909302,122.008827 411.432678,122.020363 410.956055,122.031898 
	C410.572418,121.987991 410.188782,121.944084 409.461243,121.489441 
	C408.580841,119.105156 408.044342,117.131622 407.507843,115.158089 
	C407.507843,115.158089 407.780640,115.078384 407.917847,115.039169 
	C409.478638,114.693985 410.902161,114.388008 412.695374,114.055237 
z"/>
<path fill="#DFFAFC" opacity="1.000000" stroke="none" 
	d="
M451.663513,118.010628 
	C451.577393,120.222389 451.113464,122.424957 450.649567,124.627518 
	C450.207489,124.706451 449.765411,124.785385 449.323303,124.864326 
	C448.246704,122.149376 447.170074,119.434433 446.075623,116.345894 
	C447.800446,116.648674 449.543091,117.325050 451.663513,118.010628 
z"/>
<path fill="#DFFAFC" opacity="1.000000" stroke="none" 
	d="
M457.602112,98.043655 
	C457.483398,99.826302 457.026489,101.679672 456.312775,103.774010 
	C456.458618,102.048111 456.861267,100.081238 457.602112,98.043655 
z"/>
<path fill="#DFFAFC" opacity="1.000000" stroke="none" 
	d="
M455.560913,107.057724 
	C455.460236,108.506378 455.001465,110.046280 454.284027,111.809982 
	C454.417847,110.405518 454.810364,108.777245 455.560913,107.057724 
z"/>
<path fill="#DFFAFC" opacity="1.000000" stroke="none" 
	d="
M458.704163,94.027695 
	C458.840424,94.550400 458.684998,95.106293 458.294434,95.839127 
	C458.176971,95.364334 458.294708,94.712601 458.704163,94.027695 
z"/>
<path fill="#ACF1FC" opacity="1.000000" stroke="none" 
	d="
M408.485199,145.942642 
	C408.841888,146.305420 408.898560,146.766663 408.970734,147.574020 
	C408.574127,147.973114 408.161987,148.026093 407.441345,148.109055 
	C407.483582,147.439728 407.834381,146.740433 408.485199,145.942642 
z"/>
<path fill="#21D6FC" opacity="1.000000" stroke="none" 
	d="
M221.282288,153.228958 
	C214.418991,156.889359 210.012253,154.538803 209.993607,147.584747 
	C209.949890,131.270966 209.948944,114.957031 209.965195,98.643188 
	C209.970978,92.829155 210.845093,91.956566 216.602020,91.939514 
	C223.926407,91.917824 231.252838,91.862251 238.575058,91.999130 
	C249.538300,92.204094 258.490662,99.876465 258.982483,109.312813 
	C259.609741,121.346756 252.696228,129.541168 240.512833,130.997375 
	C236.407959,131.488007 232.256836,131.872482 228.131607,131.831192 
	C224.207230,131.791901 222.927979,133.414886 222.831650,137.197052 
	C222.698090,142.442688 222.002930,147.674011 221.282288,153.228958 
M242.853760,105.756264 
	C241.587234,104.724625 240.473831,103.333649 239.029892,102.718285 
	C227.680511,97.881538 223.016159,100.955292 223.047180,113.096420 
	C223.069153,121.696106 224.448959,122.935577 233.005295,121.926376 
	C234.150635,121.791275 235.271042,121.425598 236.395828,121.138649 
	C244.151627,119.160080 246.586288,113.905594 242.853760,105.756264 
z"/>
<path fill="#14D4FC" opacity="1.000000" stroke="none" 
	d="
M278.879883,114.076530 
	C282.459595,112.838898 285.674591,110.974594 289.139801,109.997673 
	C290.988281,109.476555 294.685028,109.949112 295.055695,110.922279 
	C295.796021,112.866028 295.162292,115.589211 294.379028,117.727936 
	C294.076447,118.554146 291.845825,118.965218 290.460052,119.056511 
	C281.480469,119.648094 278.285370,122.887215 277.984497,131.748154 
	C277.778015,137.829910 277.287964,143.904480 277.188782,149.986557 
	C277.125854,153.844849 274.854645,154.126373 271.889465,154.152161 
	C268.752014,154.179413 266.792450,153.430374 266.830872,149.733215 
	C266.943390,138.907425 266.890167,128.079849 266.883759,117.252960 
	C266.882080,114.407928 266.479309,111.379478 270.206909,110.376007 
	C273.864685,109.391350 276.774994,110.326454 278.879883,114.076530 
z"/>
<path fill="#19D5FC" opacity="1.000000" stroke="none" 
	d="
M409.168579,134.545227 
	C408.649414,136.989365 408.079865,138.996811 407.515411,141.005661 
	C404.076538,153.243881 394.089508,158.261261 382.378357,153.633163 
	C375.774933,151.023575 374.174255,152.119186 374.093018,159.331161 
	C374.068634,161.495026 373.995697,163.664886 374.116608,165.822388 
	C374.324768,169.536240 373.982025,172.218735 368.991730,172.248734 
	C364.260498,172.277145 362.911346,170.376221 362.941162,166.025879 
	C363.055328,149.379425 362.904541,132.730911 363.073792,116.085411 
	C363.092957,114.199173 364.222473,110.956879 365.338318,110.721756 
	C368.009064,110.158958 371.822632,110.007301 373.635559,111.526543 
	C376.562622,113.979492 378.631622,114.041023 381.506622,112.188568 
	C388.023773,107.989365 394.657928,108.228363 401.697205,111.894623 
	C402.636566,112.414925 403.195496,112.938972 403.926453,114.064537 
	C405.798462,119.098511 407.498444,123.530968 409.198425,127.963432 
	C409.172455,130.012024 409.146484,132.060608 409.168579,134.545227 
M376.091797,126.870819 
	C376.160339,130.788879 375.427185,134.960037 376.558197,138.542679 
	C377.419495,141.270889 380.312866,144.517761 382.917053,145.205475 
	C385.462463,145.877686 389.328705,144.289154 391.649628,142.464722 
	C395.708649,139.274063 395.170868,134.169693 394.933624,129.530014 
	C394.650787,123.998314 391.531128,119.853973 387.344391,119.090919 
	C382.488037,118.205833 378.812683,120.520828 376.091797,126.870819 
z"/>
<path fill="#22D5FC" opacity="1.000000" stroke="none" 
	d="
M313.926147,111.681488 
	C322.471588,107.877792 330.772522,106.808006 339.410583,110.217461 
	C348.066925,113.634109 354.022125,123.787811 351.901337,132.779541 
	C351.579041,134.145889 348.977875,135.832108 347.373840,135.893936 
	C339.393463,136.201553 331.391113,135.897476 323.403625,136.096176 
	C321.684845,136.138931 318.616882,137.283157 318.567963,138.069229 
	C318.451355,139.942825 319.288727,142.353058 320.594208,143.747787 
	C324.395264,147.808716 330.674347,147.296524 336.764648,144.299744 
	C340.218994,142.600052 344.568054,142.306915 348.535278,142.205246 
	C351.206635,142.136780 352.689880,143.770615 350.754028,146.922241 
	C347.610229,152.040451 342.959747,154.458435 337.324188,155.436447 
	C327.841248,157.082184 318.522339,156.830887 310.821716,150.287262 
	C298.998444,140.240387 300.567261,120.883507 313.926147,111.681488 
M329.165741,117.080688 
	C324.579407,116.786537 320.582184,117.995972 318.066528,122.084961 
	C315.919098,125.575470 317.144592,127.914223 321.167938,128.043793 
	C325.786499,128.192551 330.421143,128.174789 335.037018,127.967018 
	C338.814453,127.796989 340.346466,125.226562 337.944336,122.412094 
	C335.963531,120.091316 332.678192,118.883980 329.165741,117.080688 
z"/>
<path fill="#EBFBF9" opacity="1.000000" stroke="none" 
	d="
M333.160919,142.136444 
	C328.908386,143.772522 324.921234,145.170273 321.776398,139.121323 
	C325.791016,139.121323 329.153229,139.037552 332.497925,139.241180 
	C332.862518,139.263367 333.126251,140.942490 333.160919,142.136444 
z"/>
<path fill="#79E4FB" opacity="1.000000" stroke="none" 
	d="
M409.433044,127.710976 
	C407.498444,123.530968 405.798462,119.098511 404.100159,114.294197 
	C405.048126,114.286705 405.994415,114.651077 407.224243,115.086761 
	C408.044342,117.131622 408.580841,119.105156 409.173309,121.456421 
	C409.375427,123.708931 409.521545,125.583725 409.433044,127.710976 
z"/>
<path fill="#0FD4FD" opacity="1.000000" stroke="none" 
	d="
M443.167023,119.964691 
	C443.869171,122.939316 444.133575,125.659355 445.146393,128.064194 
	C446.160522,130.472107 447.922211,132.565170 449.356201,134.796219 
	C450.909332,132.629623 453.135773,130.674240 453.893738,128.258194 
	C456.525055,119.870331 458.653870,111.324516 460.956238,102.834000 
	C461.433899,101.072540 461.719360,99.251427 462.298492,97.526680 
	C463.280762,94.601082 465.033539,92.599335 468.514526,92.911125 
	C469.836700,93.029556 471.178650,92.927513 472.511597,92.925209 
	C480.630280,92.911156 482.500153,95.552109 482.019684,103.605049 
	C481.398132,114.023193 481.661133,124.493004 481.491791,134.939743 
	C481.416626,139.575089 481.156250,144.207565 481.091370,148.842911 
	C481.046875,152.018997 479.789459,154.025345 476.413116,153.975861 
	C472.974487,153.925430 471.944244,151.727280 471.950836,148.634094 
	C471.975006,137.304199 472.051727,125.972481 471.866577,114.645401 
	C471.820831,111.847237 470.861420,109.064018 470.321991,106.273933 
	C469.650055,106.220131 468.978119,106.166328 468.306183,106.112526 
	C466.247864,112.266396 464.010254,118.367378 462.175934,124.587303 
	C459.789124,132.680649 457.801331,140.891006 455.478149,149.004135 
	C454.589355,152.108170 452.378937,155.057175 449.072052,153.752472 
	C446.605743,152.779404 443.992584,149.904572 443.205048,147.336792 
	C439.422668,135.004303 436.257843,122.482979 432.814880,110.045006 
	C432.438995,108.687080 431.684906,107.433838 431.106293,106.132034 
	C430.519806,106.060509 429.933319,105.988983 429.346863,105.917465 
	C428.583527,109.375237 427.259033,112.817345 427.162018,116.293701 
	C426.869385,126.782501 427.017090,137.284805 427.073761,147.781403 
	C427.091644,151.098755 426.617950,154.002960 422.466553,153.974304 
	C418.308319,153.945587 417.919434,150.994980 417.929016,147.706314 
	C417.977081,131.211258 418.030762,114.715439 417.904846,98.221245 
	C417.875946,94.433380 419.038422,92.777733 423.049469,92.865852 
	C438.200439,93.198677 434.841644,90.958939 438.822540,104.725563 
	C440.252075,109.669167 441.646790,114.622841 443.167023,119.964691 
z"/>
<path fill="#0AAEFE" opacity="1.000000" stroke="none" 
	d="
M55.882927,161.934052 
	C58.853443,157.817825 61.943577,153.780457 64.735458,149.546448 
	C65.848793,147.858032 66.303192,145.735123 67.409515,143.355682 
	C68.863167,141.912888 69.964844,140.924408 71.436920,140.120712 
	C80.535492,140.538086 89.263657,140.770676 98.054741,141.355286 
	C105.895706,148.867615 95.803650,151.361633 93.934578,156.989517 
	C95.220879,157.681717 96.803009,158.533096 97.545425,158.932617 
	C95.686050,162.178864 94.334686,164.538193 92.983322,166.897537 
	C83.631966,166.905014 74.280609,166.912491 64.370728,166.525528 
	C61.169106,164.732086 58.526016,163.333069 55.882927,161.934052 
z"/>
<path fill="#0C8CF4" opacity="1.000000" stroke="none" 
	d="
M177.851501,85.023888 
	C177.901505,101.954239 178.451096,118.903862 177.799057,135.807129 
	C177.452560,144.789719 179.813675,152.007156 185.953598,158.224503 
	C188.612701,160.917114 188.725021,163.697891 186.261841,166.944366 
	C177.087814,167.423553 168.192535,167.771271 159.296021,167.807053 
	C154.176666,167.827652 149.055267,167.343323 143.411514,166.716644 
	C141.165771,164.862045 139.443314,163.377060 137.821365,161.565582 
	C138.114014,160.826370 138.306137,160.413696 138.874756,160.002136 
	C146.980927,163.550613 154.315338,161.822006 161.518188,158.337234 
	C161.519135,153.116333 161.849869,152.827698 167.049240,153.861328 
	C169.307938,154.310364 171.521271,155.060791 173.795853,155.326187 
	C174.948349,155.460648 176.488922,155.149277 177.291870,154.420288 
	C177.857910,153.906342 177.956451,151.970215 177.441605,151.322266 
	C174.407364,147.503571 172.199722,142.284012 165.594131,143.928146 
	C163.722366,144.394028 161.535477,144.373779 159.670822,143.890640 
	C157.344421,143.287842 155.201813,141.975677 153.448395,140.949417 
	C157.408890,140.922974 160.900818,140.919159 164.392761,140.910385 
	C171.572220,140.892334 172.932816,139.609955 172.950073,132.588089 
	C172.986023,117.955223 172.777786,103.318054 173.092392,88.691742 
	C173.194809,83.930237 171.723511,81.466896 167.007278,80.695145 
	C168.134033,75.575119 171.279648,79.618813 173.313538,78.855194 
	C174.236130,79.949471 175.158737,81.043755 176.090393,82.790115 
	C176.683472,83.969429 177.267487,84.496658 177.851501,85.023888 
M183.487823,163.375549 
	C182.316818,160.892624 181.145798,158.409683 180.031921,156.047882 
	C177.829895,157.970337 176.560272,158.974136 175.420731,160.108597 
	C174.592789,160.932846 173.936890,161.929886 173.204285,162.849869 
	C174.338120,163.558701 175.460312,164.829834 176.608337,164.853607 
	C178.684296,164.896561 180.775665,164.194824 183.487823,163.375549 
M168.083221,160.716980 
	C168.029602,160.227402 167.975998,159.737823 167.922379,159.248245 
	C167.486053,159.361130 167.049728,159.474014 166.613403,159.586899 
	C166.908493,160.005478 167.203598,160.424042 168.083221,160.716980 
z"/>
<path fill="#13A5FB" opacity="1.000000" stroke="none" 
	d="
M93.432701,166.943466 
	C94.334686,164.538193 95.686050,162.178864 97.545425,158.932617 
	C96.803009,158.533096 95.220879,157.681717 93.934578,156.989517 
	C95.803650,151.361633 105.895706,148.867615 98.524094,141.338318 
	C109.945717,140.971497 120.960892,140.973618 131.989365,141.354248 
	C134.458084,148.671188 134.456955,148.667770 127.204445,151.077347 
	C124.641685,151.928818 122.086006,152.801590 119.527092,153.664642 
	C121.116127,154.784302 122.689102,154.676056 124.126152,155.067215 
	C125.486443,155.437469 126.704094,156.331741 127.522156,157.068176 
	C121.140259,157.257355 115.208199,157.188293 109.307556,157.585739 
	C107.081032,157.735703 103.801666,158.161621 106.034637,162.379807 
	C106.011414,163.130554 105.995232,163.559464 105.636665,164.025574 
	C104.191216,165.028931 103.088150,165.995087 101.985085,166.961212 
	C99.284088,166.970612 96.583084,166.980011 93.432701,166.943466 
z"/>
<path fill="#16A2EC" opacity="1.000000" stroke="none" 
	d="
M71.066521,139.935928 
	C69.964844,140.924408 68.863167,141.912888 67.452385,142.963043 
	C67.090744,123.267998 67.113853,103.510559 66.929428,83.755058 
	C66.886406,79.146790 69.463303,78.030907 73.192284,78.005974 
	C82.822319,77.941597 92.452965,77.967560 102.547050,78.371796 
	C103.001068,79.542114 102.991394,80.298073 102.514969,81.060272 
	C93.722336,81.066483 85.394318,80.951126 77.071297,81.105186 
	C71.089439,81.215919 70.046524,82.400803 70.040337,88.127350 
	C70.024132,103.113922 69.988495,118.100769 70.076653,133.086823 
	C70.090088,135.371719 70.721130,137.652985 71.066521,139.935928 
z"/>
<path fill="#108DEA" opacity="1.000000" stroke="none" 
	d="
M102.981720,81.054039 
	C102.991394,80.298073 103.001068,79.542114 103.015839,78.408890 
	C125.691887,77.733154 148.362839,77.434677 171.499115,77.144409 
	C172.306732,77.571663 172.649002,77.990692 173.152405,78.632462 
	C171.279648,79.618813 168.134033,75.575119 166.539139,80.702194 
	C145.033600,81.080338 124.007668,81.067192 102.981720,81.054039 
z"/>
<path fill="#1687DD" opacity="1.000000" stroke="none" 
	d="
M105.979050,163.988373 
	C105.995232,163.559464 106.011414,163.130554 106.498749,162.368805 
	C117.220215,161.988022 127.470528,161.940048 137.720840,161.892090 
	C139.443314,163.377060 141.165771,164.862045 142.948273,166.691040 
	C132.325500,167.017471 121.642715,166.999893 110.424561,166.630432 
	C108.585808,165.515152 107.282433,164.751770 105.979050,163.988373 
z"/>
<path fill="#13A5FB" opacity="1.000000" stroke="none" 
	d="
M55.648514,162.166229 
	C58.526016,163.333069 61.169106,164.732086 63.904671,166.473495 
	C60.412411,166.749573 55.994148,168.302750 55.648514,162.166229 
z"/>
<path fill="#25A3EE" opacity="1.000000" stroke="none" 
	d="
M105.636665,164.025574 
	C107.282433,164.751770 108.585808,165.515152 109.957886,166.612732 
	C107.643211,166.972748 105.259850,166.998611 102.430786,166.992859 
	C103.088150,165.995087 104.191216,165.028931 105.636665,164.025574 
z"/>
<path fill="#23D4FC" opacity="1.000000" stroke="none" 
	d="
M538.787598,120.769615 
	C539.192261,129.450211 539.332336,137.910645 539.739258,146.685486 
	C539.411499,149.593033 539.522095,153.829071 538.080078,154.447998 
	C534.757263,155.874268 530.897278,155.847031 527.681274,152.302277 
	C526.607178,151.118332 522.922668,151.870300 520.567139,152.373016 
	C515.932617,153.362076 511.449738,155.510010 506.800964,155.879089 
	C499.796783,156.435196 492.931610,150.889648 492.055542,145.082825 
	C491.020935,138.224777 494.651855,132.511429 502.294983,130.086197 
	C507.969849,128.285492 513.952637,127.459244 519.638000,125.685265 
	C521.641418,125.060135 523.169189,122.910484 524.914124,121.456924 
	C522.730164,120.024773 520.600037,117.531929 518.349121,117.417603 
	C515.239258,117.259644 512.047058,118.927910 508.873962,119.751625 
	C505.746765,120.563431 502.630737,121.567726 499.445953,121.937195 
	C498.105957,122.092651 495.833649,121.166611 495.385040,120.127724 
	C494.920715,119.052437 495.809052,116.983749 496.703217,115.801468 
	C500.752777,110.447083 506.893433,109.239655 512.993591,108.229439 
	C525.001770,106.240837 534.625488,110.952820 538.787598,120.769615 
M506.509857,144.720520 
	C512.512329,148.640869 523.618286,144.953018 525.678833,138.355240 
	C526.945251,134.300262 525.383484,132.478867 521.330383,133.504272 
	C517.788025,134.400452 514.321899,135.593857 510.802155,136.585022 
	C506.973694,137.663101 505.201721,139.966461 506.509857,144.720520 
z"/>
<path fill="#DAF7F9" opacity="1.000000" stroke="none" 
	d="
M410.968811,122.397972 
	C411.432678,122.020363 411.909302,122.008827 412.744995,121.999290 
	C413.402496,123.429504 413.700897,124.857712 413.999268,126.285919 
	C413.533417,126.436600 413.067535,126.587288 412.601654,126.737968 
	C412.061646,125.413330 411.521637,124.088692 410.968811,122.397972 
z"/>
<path fill="#1FD4FC" opacity="1.000000" stroke="none" 
	d="
M576.019714,114.037285 
	C575.936951,117.540352 574.222290,119.078117 571.255798,118.932556 
	C566.331299,118.690903 564.832275,121.235550 565.041687,125.713531 
	C565.235657,129.863052 565.014404,134.031357 565.185974,138.182724 
	C565.369202,142.614853 566.903748,145.758560 572.192383,146.104996 
	C573.581909,146.195999 575.852112,148.655075 575.863647,150.042084 
	C575.878662,151.852036 574.477234,154.673340 572.941956,155.335236 
	C562.537537,159.820648 552.189636,152.941040 552.047363,141.733429 
	C551.979797,136.412262 551.930603,131.087769 552.045166,125.768486 
	C552.120178,122.285507 551.413147,119.818390 547.529175,118.569687 
	C544.046692,117.450066 543.492676,111.486176 546.747192,110.316765 
	C552.217346,108.351219 552.202637,104.303078 552.065369,99.856422 
	C551.976379,96.974625 551.918945,94.287910 555.405090,92.903557 
	C562.531494,90.073685 565.062744,91.678955 565.098267,99.420670 
	C565.105896,101.083694 565.030396,102.752274 565.139954,104.408592 
	C565.371826,107.914948 566.858887,110.216881 570.819519,109.452721 
	C574.318604,108.777603 575.799194,110.355255 576.019714,114.037285 
z"/>
<path fill="#EBFBF9" opacity="1.000000" stroke="none" 
	d="
M607.162598,144.270157 
	C605.614319,143.775467 604.505371,143.162933 603.136414,142.352173 
	C603.661194,141.115997 604.380981,139.249054 605.241882,139.181564 
	C609.292297,138.863983 613.381470,139.040192 618.017090,139.040192 
	C615.688904,144.691071 611.371948,143.808380 607.162598,144.270157 
z"/>
<path fill="#16D4FC" opacity="1.000000" stroke="none" 
	d="
M596.383301,113.101273 
	C604.931580,109.114090 613.303101,108.787361 621.814392,111.997704 
	C627.795044,114.253479 633.609314,123.243179 632.879517,129.501190 
	C632.565979,132.189667 631.308289,134.129074 628.055481,134.087448 
	C621.299805,134.000961 614.518250,133.768356 607.795715,134.259262 
	C604.839050,134.475159 601.002197,135.525665 599.359802,137.610916 
	C597.272827,140.260635 600.400330,144.857574 604.732544,146.830795 
	C609.760132,149.120804 614.326477,147.624969 619.035034,145.441925 
	C621.908264,144.109787 625.202942,143.307892 628.367249,143.077911 
	C632.337769,142.789383 632.847107,145.851212 630.396851,147.696609 
	C626.558960,150.587158 622.121033,153.516983 617.541321,154.418259 
	C606.967468,156.499176 592.144653,153.597458 588.298645,141.362885 
	C585.265625,131.714493 584.970886,121.911461 596.383301,113.101273 
M618.436584,120.059708 
	C611.825867,115.403473 604.032654,115.909393 600.367004,121.504829 
	C599.510559,122.812126 599.089905,125.225464 599.740051,126.460846 
	C600.350586,127.620865 602.624695,128.405151 604.197632,128.459366 
	C607.982422,128.589813 611.799011,128.332855 615.574341,127.950722 
	C617.250671,127.781036 620.107788,127.143692 620.242981,126.347427 
	C620.547363,124.555603 619.487061,122.532036 618.436584,120.059708 
z"/>
<path fill="#1B8CEA" opacity="1.000000" stroke="none" 
	d="
M177.864410,84.700508 
	C177.267487,84.496658 176.683472,83.969429 176.111267,83.104965 
	C176.707809,83.304192 177.292557,83.840660 177.864410,84.700508 
z"/>
<path fill="#ADF3FD" opacity="1.000000" stroke="none" 
	d="
M243.033966,106.097061 
	C246.586288,113.905594 244.151627,119.160080 236.395828,121.138649 
	C235.271042,121.425598 234.150635,121.791275 233.005295,121.926376 
	C224.448959,122.935577 223.069153,121.696106 223.047180,113.096420 
	C223.016159,100.955292 227.680511,97.881538 239.029892,102.718285 
	C240.473831,103.333649 241.587234,104.724625 243.033966,106.097061 
M228.831909,104.955124 
	C225.672409,106.974052 224.670731,116.306198 227.482330,118.375511 
	C228.199295,118.903175 229.360352,119.099846 230.281204,119.021828 
	C232.243454,118.855560 234.209747,118.522949 236.124451,118.054382 
	C239.989319,117.108574 241.342056,114.445580 241.103516,110.624840 
	C240.866867,106.834160 238.270706,105.590843 235.187195,105.035843 
	C233.415634,104.716972 231.547577,104.934204 228.831909,104.955124 
z"/>
<path fill="#DAF7F9" opacity="1.000000" stroke="none" 
	d="
M376.162140,126.480392 
	C378.812683,120.520828 382.488037,118.205833 387.344391,119.090919 
	C391.531128,119.853973 394.650787,123.998314 394.933624,129.530014 
	C395.170868,134.169693 395.708649,139.274063 391.649628,142.464722 
	C389.328705,144.289154 385.462463,145.877686 382.917053,145.205475 
	C380.312866,144.517761 377.419495,141.270889 376.558197,138.542679 
	C375.427185,134.960037 376.160339,130.788879 376.162140,126.480392 
z"/>
<path fill="#97F1FD" opacity="1.000000" stroke="none" 
	d="
M329.568359,117.131958 
	C332.678192,118.883980 335.963531,120.091316 337.944336,122.412094 
	C340.346466,125.226562 338.814453,127.796989 335.037018,127.967018 
	C330.421143,128.174789 325.786499,128.192551 321.167938,128.043793 
	C317.144592,127.914223 315.919098,125.575470 318.066528,122.084961 
	C320.582184,117.995972 324.579407,116.786537 329.568359,117.131958 
M322.885223,120.993576 
	C322.110504,122.255302 321.335815,123.517029 320.561096,124.778748 
	C321.904785,125.196594 323.229218,125.873947 324.596405,125.975510 
	C327.052521,126.157967 329.542358,126.101875 332.001129,125.918144 
	C332.869690,125.853241 334.342438,125.184853 334.389160,124.684608 
	C334.476654,123.746933 333.872040,121.983887 333.298950,121.871521 
	C330.112213,121.246674 326.848480,121.014511 322.885223,120.993576 
z"/>
<path fill="#4EB3F0" opacity="1.000000" stroke="none" 
	d="
M102.514969,81.060272 
	C124.007668,81.067192 145.033600,81.080338 166.527679,81.086441 
	C171.723511,81.466896 173.194809,83.930237 173.092392,88.691742 
	C172.777786,103.318054 172.986023,117.955223 172.950073,132.588089 
	C172.932816,139.609955 171.572220,140.892334 164.392761,140.910385 
	C160.900818,140.919159 157.408890,140.922974 152.982468,140.934723 
	C145.357346,140.952194 138.666718,140.963959 131.976074,140.975739 
	C120.960892,140.973618 109.945717,140.971497 98.461182,140.986328 
	C89.263657,140.770676 80.535492,140.538086 71.436920,140.120712 
	C70.721130,137.652985 70.090088,135.371719 70.076653,133.086823 
	C69.988495,118.100769 70.024132,103.113922 70.040337,88.127350 
	C70.046524,82.400803 71.089439,81.215919 77.071297,81.105186 
	C85.394318,80.951126 93.722336,81.066483 102.514969,81.060272 
M139.499680,83.766106 
	C119.189651,83.780472 98.879272,83.859932 78.569908,83.751282 
	C74.759178,83.730888 72.470825,84.612976 72.563904,88.914017 
	C72.700127,95.208649 72.708679,101.506981 72.698456,107.803612 
	C72.684982,116.098999 72.701935,124.396652 72.507851,132.688705 
	C72.395035,137.508316 74.902153,138.310638 79.095757,138.290573 
	C107.562515,138.154312 136.030975,138.117950 164.496948,138.320740 
	C169.299728,138.354935 171.062469,136.840393 171.007050,132.087708 
	C170.838196,117.606209 170.845825,103.120964 170.973907,88.638847 
	C171.006775,84.921051 169.603500,83.643608 165.969467,83.713715 
	C157.482391,83.877457 148.989944,83.763557 139.499680,83.766106 
z"/>
<path fill="#0891FB" opacity="1.000000" stroke="none" 
	d="
M131.989365,141.354248 
	C138.666718,140.963959 145.357346,140.952194 152.513916,140.955109 
	C155.201813,141.975677 157.344421,143.287842 159.670822,143.890640 
	C161.535477,144.373779 163.722366,144.394028 165.594131,143.928146 
	C172.199722,142.284012 174.407364,147.503571 177.441605,151.322266 
	C177.956451,151.970215 177.857910,153.906342 177.291870,154.420288 
	C176.488922,155.149277 174.948349,155.460648 173.795853,155.326187 
	C171.521271,155.060791 169.307938,154.310364 167.049240,153.861328 
	C161.849869,152.827698 161.519135,153.116333 161.518188,158.337234 
	C154.315338,161.822006 146.980927,163.550613 138.700806,159.711334 
	C137.773239,158.866135 137.396088,158.312866 136.972534,157.488281 
	C136.275436,157.173401 135.624741,157.129852 134.538773,157.125107 
	C132.063812,157.107788 130.024155,157.051666 127.984482,156.995544 
	C126.704094,156.331741 125.486443,155.437469 124.126152,155.067215 
	C122.689102,154.676056 121.116127,154.784302 119.527092,153.664642 
	C122.086006,152.801590 124.641685,151.928818 127.204445,151.077347 
	C134.456955,148.667770 134.458084,148.671188 131.989365,141.354248 
z"/>
<path fill="#94E9FC" opacity="1.000000" stroke="none" 
	d="
M127.522156,157.068176 
	C130.024155,157.051666 132.063812,157.107788 134.722565,157.350708 
	C135.900742,157.611526 136.459854,157.685562 137.018951,157.759598 
	C137.396088,158.312866 137.773239,158.866135 138.324310,159.710205 
	C138.306137,160.413696 138.114014,160.826370 137.821365,161.565582 
	C127.470528,161.940048 117.220215,161.988022 106.505798,162.046967 
	C103.801666,158.161621 107.081032,157.735703 109.307556,157.585739 
	C115.208199,157.188293 121.140259,157.257355 127.522156,157.068176 
z"/>
<path fill="#0891FB" opacity="1.000000" stroke="none" 
	d="
M183.174225,163.589783 
	C180.775665,164.194824 178.684296,164.896561 176.608337,164.853607 
	C175.460312,164.829834 174.338120,163.558701 173.204285,162.849869 
	C173.936890,161.929886 174.592789,160.932846 175.420731,160.108597 
	C176.560272,158.974136 177.829895,157.970337 180.031921,156.047882 
	C181.145798,158.409683 182.316818,160.892624 183.174225,163.589783 
z"/>
<path fill="#0891FB" opacity="1.000000" stroke="none" 
	d="
M167.790955,160.779800 
	C167.203598,160.424042 166.908493,160.005478 166.613403,159.586899 
	C167.049728,159.474014 167.486053,159.361130 167.922379,159.248245 
	C167.975998,159.737823 168.029602,160.227402 167.790955,160.779800 
z"/>
<path fill="#C9F8FC" opacity="1.000000" stroke="none" 
	d="
M506.328247,144.363708 
	C505.201721,139.966461 506.973694,137.663101 510.802155,136.585022 
	C514.321899,135.593857 517.788025,134.400452 521.330383,133.504272 
	C525.383484,132.478867 526.945251,134.300262 525.678833,138.355240 
	C523.618286,144.953018 512.512329,148.640869 506.328247,144.363708 
z"/>
<path fill="#ACF5FD" opacity="1.000000" stroke="none" 
	d="
M618.709351,120.331245 
	C619.487061,122.532036 620.547363,124.555603 620.242981,126.347427 
	C620.107788,127.143692 617.250671,127.781036 615.574341,127.950722 
	C611.799011,128.332855 607.982422,128.589813 604.197632,128.459366 
	C602.624695,128.405151 600.350586,127.620865 599.740051,126.460846 
	C599.089905,125.225464 599.510559,122.812126 600.367004,121.504829 
	C604.032654,115.909393 611.825867,115.403473 618.709351,120.331245 
M606.062988,121.100441 
	C604.104431,122.397125 602.365601,124.062698 606.071045,124.897942 
	C608.812622,125.515953 611.805420,125.019417 615.004333,125.019417 
	C613.459534,120.859695 613.459534,120.859695 606.062988,121.100441 
z"/>
<path fill="#F5FAF5" opacity="1.000000" stroke="none" 
	d="
M229.277435,104.932610 
	C231.547577,104.934204 233.415634,104.716972 235.187195,105.035843 
	C238.270706,105.590843 240.866867,106.834160 241.103516,110.624840 
	C241.342056,114.445580 239.989319,117.108574 236.124451,118.054382 
	C234.209747,118.522949 232.243454,118.855560 230.281204,119.021828 
	C229.360352,119.099846 228.199295,118.903175 227.482330,118.375511 
	C224.670731,116.306198 225.672409,106.974052 229.277435,104.932610 
z"/>
<path fill="#DFFAFC" opacity="1.000000" stroke="none" 
	d="
M323.248169,120.820778 
	C326.848480,121.014511 330.112213,121.246674 333.298950,121.871521 
	C333.872040,121.983887 334.476654,123.746933 334.389160,124.684608 
	C334.342438,125.184853 332.869690,125.853241 332.001129,125.918144 
	C329.542358,126.101875 327.052521,126.157967 324.596405,125.975510 
	C323.229218,125.873947 321.904785,125.196594 320.561096,124.778755 
	C321.335815,123.517029 322.110504,122.255302 323.248169,120.820778 
z"/>
<path fill="#EDF7F7" opacity="1.000000" stroke="none" 
	d="
M139.999680,83.764114 
	C148.989944,83.763557 157.482391,83.877457 165.969467,83.713715 
	C169.603500,83.643608 171.006775,84.921051 170.973907,88.638847 
	C170.845825,103.120964 170.838196,117.606209 171.007050,132.087708 
	C171.062469,136.840393 169.299728,138.354935 164.496948,138.320740 
	C136.030975,138.117950 107.562515,138.154312 79.095757,138.290573 
	C74.902153,138.310638 72.395035,137.508316 72.507851,132.688705 
	C72.701935,124.396652 72.684982,116.098999 72.698456,107.803612 
	C72.708679,101.506981 72.700127,95.208649 72.563904,88.914017 
	C72.470825,84.612976 74.759178,83.730888 78.569908,83.751282 
	C98.879272,83.859932 119.189651,83.780472 139.999680,83.764114 
M139.207535,94.928940 
	C137.724533,95.885170 136.008148,96.612221 134.802094,97.840408 
	C131.104797,101.605560 127.677567,105.634758 124.009346,109.429863 
	C117.447197,116.219017 117.406349,116.177887 110.150688,111.295227 
	C110.032707,111.215836 109.826111,111.268105 109.238380,110.729576 
	C106.823235,109.813889 104.408096,108.898201 101.648270,107.475258 
	C96.589478,109.355370 95.483246,113.441940 99.221275,117.589813 
	C102.770607,121.528305 106.644920,125.176094 110.413025,128.914719 
	C114.916733,133.383224 119.168388,133.391205 123.640846,128.791473 
	C132.186737,120.002357 140.690781,111.171562 149.113632,102.264839 
	C150.444458,100.857567 151.806458,99.060158 152.127960,97.259888 
	C152.356873,95.978081 150.864258,94.388840 149.790176,92.567802 
	C149.542618,92.336456 149.295044,92.105110 148.901672,91.168686 
	C145.915390,89.096886 143.594223,89.657310 141.680374,93.439171 
	C141.095657,93.941650 140.510941,94.444130 139.207535,94.928940 
z"/>
<path fill="#13A5FB" opacity="1.000000" stroke="none" 
	d="
M136.972534,157.488281 
	C136.459854,157.685562 135.900742,157.611526 135.157852,157.311905 
	C135.624741,157.129852 136.275436,157.173401 136.972534,157.488281 
z"/>
<path fill="#EBFBF9" opacity="1.000000" stroke="none" 
	d="
M606.486450,121.027931 
	C613.459534,120.859695 613.459534,120.859695 615.004333,125.019417 
	C611.805420,125.019417 608.812622,125.515953 606.071045,124.897942 
	C602.365601,124.062698 604.104431,122.397125 606.486450,121.027931 
z"/>
<path fill="#21AAF8" opacity="1.000000" stroke="none" 
	d="
M149.047470,91.873772 
	C149.295044,92.105110 149.542618,92.336456 149.925049,93.100899 
	C149.197449,96.098206 148.983170,99.155388 147.363022,100.926514 
	C139.284637,109.757683 130.828873,118.243256 122.522491,126.866394 
	C118.637238,130.899796 115.359497,130.913925 111.482162,126.808418 
	C108.516403,123.668137 105.831291,120.211777 102.583054,117.402847 
	C98.911865,114.228149 98.452827,111.360954 101.992950,107.982513 
	C104.408096,108.898201 106.823235,109.813889 109.491859,111.344353 
	C113.836510,119.402992 117.167847,119.904846 122.707207,113.962959 
	C124.963074,111.543159 127.373444,109.264908 129.583328,106.805275 
	C133.088440,102.904030 136.484192,98.904533 139.926224,94.946609 
	C140.510941,94.444130 141.095657,93.941650 142.215546,93.169373 
	C144.849640,92.557640 146.948563,92.215706 149.047470,91.873772 
z"/>
<path fill="#A3E0FB" opacity="1.000000" stroke="none" 
	d="
M101.820610,107.728882 
	C98.452827,111.360954 98.911865,114.228149 102.583054,117.402847 
	C105.831291,120.211777 108.516403,123.668137 111.482162,126.808418 
	C115.359497,130.913925 118.637238,130.899796 122.522491,126.866394 
	C130.828873,118.243256 139.284637,109.757683 147.363022,100.926514 
	C148.983170,99.155388 149.197449,96.098206 150.099945,93.285400 
	C150.864258,94.388840 152.356873,95.978081 152.127960,97.259888 
	C151.806458,99.060158 150.444458,100.857567 149.113632,102.264839 
	C140.690781,111.171562 132.186737,120.002357 123.640846,128.791473 
	C119.168388,133.391205 114.916733,133.383224 110.413025,128.914719 
	C106.644920,125.176094 102.770607,121.528305 99.221275,117.589813 
	C95.483246,113.441940 96.589478,109.355370 101.820610,107.728882 
z"/>
<path fill="#A3E0FB" opacity="1.000000" stroke="none" 
	d="
M139.566879,94.937775 
	C136.484192,98.904533 133.088440,102.904030 129.583328,106.805275 
	C127.373444,109.264908 124.963074,111.543159 122.707207,113.962959 
	C117.167847,119.904846 113.836510,119.402992 109.703110,111.609024 
	C109.826111,111.268105 110.032707,111.215836 110.150688,111.295227 
	C117.406349,116.177887 117.447197,116.219017 124.009346,109.429863 
	C127.677567,105.634758 131.104797,101.605560 134.802094,97.840408 
	C136.008148,96.612221 137.724533,95.885170 139.566879,94.937775 
z"/>
<path fill="#A3E0FB" opacity="1.000000" stroke="none" 
	d="
M148.974579,91.521225 
	C146.948563,92.215706 144.849640,92.557640 142.353760,92.911575 
	C143.594223,89.657310 145.915390,89.096886 148.974579,91.521225 
z"/>
</svg>